<?xml version="1.0" encoding="utf-8"?>
<!-- Generator: Adobe Illustrator 19.0.0, SVG Export Plug-In . SVG Version: 6.00 Build 0)  -->
<svg version="1.1" id="Layer_1" xmlns="http://www.w3.org/2000/svg" xmlns:xlink="http://www.w3.org/1999/xlink" x="0px" y="0px"
	 viewBox="120 -178.3 496 496" style="enable-background:new 120 -178.3 496 496;" xml:space="preserve">
<style type="text/css">
	.st0{fill:#FFFDFD;}
	.st1{fill:#FFFFFF;}
</style>
<path class="st0" d="M313,253.7c-4.4,0-8-3.6-8-8h-16c0,10.4,6.7,19.2,16,22.5v17.5h16v-17.5c9.3-3.3,16-12.1,16-22.5
	c0-13.2-10.8-24-24-24c-4.4,0-8-3.6-8-8s3.6-8,8-8s8,3.6,8,8h16c0-10.4-6.7-19.2-16-22.5v-17.5h-16v17.5c-9.3,3.3-16,12.1-16,22.5
	c0,13.2,10.8,24,24,24c4.4,0,8,3.6,8,8S317.4,253.7,313,253.7z"/>
<path class="st0" d="M153,213.7h16v-24h24v-16h-40V213.7z"/>
<path class="st0" d="M169,245.7h-16v40h40v-16h-24V245.7z"/>
<path class="st0" d="M457,213.7h16v-40h-40v16h24V213.7z"/>
<path class="st0" d="M473,245.7h-16v24h-24v16h40V245.7z"/>
<path class="st1" d="M593-18.3h20.9l-56-112H545v-48h-80v48H321v-48h-80v48h-12.9l-56,112H193v160h-72v176h384v-96h88V-18.3z
	 M481-162.3h48v32h-48V-162.3z M257-162.3h48v32h-48V-162.3z M237.9-114.3h310.1l40,80H197.9L237.9-114.3z M137,301.7v-144h125.6
	c-22.7,15.9-37.6,42.2-37.6,72s14.9,56.1,37.6,72H137z M425,141.7h-64v-40c0-4.4,3.6-8,8-8h48c4.4,0,8,3.6,8,8V141.7z M313,157.7
	c39.7,0,72,32.3,72,72s-32.3,72-72,72s-72-32.3-72-72S273.3,157.7,313,157.7z M489,301.7H363.4c22.7-15.9,37.6-42.2,37.6-72
	s-14.9-56.1-37.6-72H489V301.7z M505,205.7v-64h-64v-40c0-13.2-10.8-24-24-24h-48c-13.2,0-24,10.8-24,24v40H209v-160h368v224H505z"
	/>
<path class="st0" d="M225,93.7h96v-96h-96V93.7z M241,13.7h64v64h-64V13.7z"/>
<path class="st0" d="M337,61.7h112v-64H337V61.7z M353,13.7h80v32h-80V13.7z"/>
<path class="st0" d="M465,93.7h96v-96h-96V93.7z M481,13.7h64v64h-64V13.7z"/>
</svg>
