<?xml version="1.0" encoding="utf-8"?>
<!-- Generator: Adobe Illustrator 19.0.0, SVG Export Plug-In . SVG Version: 6.00 Build 0)  -->
<svg version="1.1" id="Capa_1" xmlns="http://www.w3.org/2000/svg" xmlns:xlink="http://www.w3.org/1999/xlink" x="0px" y="0px"
	 viewBox="128 -186.3 512 512" style="enable-background:new 128 -186.3 512 512;" xml:space="preserve">
<style type="text/css">
	.st0{fill:#FFFFFF;}
</style>
<g>
	<g>
		<g>
			<path class="st0" d="M639.9,35.3c0-1-0.2-2-0.6-3l0,0c0-0.1-0.1-0.1-0.1-0.2c-0.8-1.7-2.2-3.2-4-4c-0.3-0.1-0.5-0.3-0.8-0.4
				c-0.9-0.4-2-0.6-3-0.6h-72.5c-21.2,0-38.4-17.2-38.4-38.4v-166.4c0-0.1-0.1-0.3-0.1-0.4c0-0.9-0.2-1.8-0.5-2.6
				c0-0.1,0-0.2-0.1-0.3l0,0c-0.4-0.9-0.9-1.7-1.6-2.4c-0.2-0.2-0.4-0.4-0.6-0.6c-0.5-0.5-1.1-0.9-1.8-1.2c-1.2-0.6-2.5-1-3.8-1
				h-51.2c-2.4,0-4.6,1-6.3,2.7L241.2,46.9c-0.2,0.3-0.4,0.7-0.6,1c-0.9,1-1.4,2.3-1.4,3.6c-0.1,0.4-0.2,0.8-0.2,1.2v98.9L130.5,260
				c-1.6,1.6-2.5,3.8-2.5,6v51.2c0,2.3,0.9,4.4,2.5,6c1.6,1.6,3.8,2.5,6,2.5h273.1c1.2,0,2.3-0.2,3.3-0.7c0.1,0,0.2-0.1,0.3-0.2
				c0.9-0.4,1.8-1,2.5-1.7l0.1-0.1L586.3,144l51.2-51.2c1.6-1.6,2.5-3.8,2.5-6V35.6C640,35.5,639.9,35.4,639.9,35.3z M464.5-169.2
				h27.9L294.9,44.1h-28L464.5-169.2z M238.9,175.7v43.4c0,21.2-17.2,38.4-38.4,38.4h-43.4L238.9,175.7z M401.1,308.7h-256v-34.1
				h55.5c30.6,0,55.4-24.8,55.5-55.5V61.2h34.1v157.9c0,30.6,24.8,55.4,55.5,55.5h55.5L401.1,308.7L401.1,308.7z M405.9,257.5h-60.3
				c-21.2,0-38.4-17.2-38.4-38.4V56l196.3-212v144.6c0,28.4,21.5,52.2,49.7,55.2c0.5,0.1,1,0.3,1.5,0.3h56.2l-36.8,36.8L405.9,257.5
				z M622.9,83.3l-48.8,48.8l-156,163.7v-26.5L586.3,92.8l36.6-36.6L622.9,83.3L622.9,83.3z"/>
			<path class="st0" d="M335.3,216.9c-1.6,1.6-2.5,3.7-2.5,6c0,2.3,0.9,4.5,2.5,6.1s3.8,2.5,6.1,2.5c2.3,0,4.4-0.9,6.1-2.5
				c1.6-1.6,2.5-3.8,2.5-6.1c0-2.2-0.9-4.4-2.5-6C344,213.7,338.7,213.7,335.3,216.9z"/>
			<path class="st0" d="M377.5,178.9c-3-0.7-6.1,0.2-8.2,2.4l0,0l-8.5,8.9c-3.2,3.4-3.1,8.8,0.3,12.1s8.8,3.1,12.1-0.3l8.5-8.9
				c2.1-2.2,2.9-5.4,2-8.3C382.8,181.8,380.4,179.6,377.5,178.9z"/>
			<path class="st0" d="M403.4,145.5l-8.5,8.9c-3.3,3.4-3.1,8.8,0.3,12.1s8.8,3.1,12.1-0.3l8.5-8.9c3.3-3.4,3.1-8.8-0.3-12.1
				C412.1,142,406.7,142.1,403.4,145.5z"/>
			<path class="st0" d="M437.6,109.8l-8.5,8.9c-3.3,3.4-3.1,8.8,0.3,12.1c3.4,3.3,8.8,3.1,12.1-0.3l8.5-8.9
				c3.3-3.4,3.1-8.8-0.3-12.1S440.8,106.3,437.6,109.8z"/>
			<path class="st0" d="M479.9,71.6c-3-0.7-6.1,0.2-8.2,2.4l-8.5,8.9c-3.3,3.4-3.1,8.8,0.3,12.1s8.8,3.1,12.1-0.3l8.5-8.9
				c2.1-2.2,2.9-5.4,2-8.3C485.2,74.6,482.8,72.3,479.9,71.6z"/>
			<path class="st0" d="M497.4,47c-1.6,1.6-2.5,3.8-2.5,6.1c0,2.2,0.9,4.4,2.5,6c1.6,1.6,3.8,2.6,6.1,2.6s4.5-0.9,6.1-2.6
				c1.6-1.6,2.5-3.7,2.5-6c0-2.3-0.9-4.4-2.5-6.1C506.1,43.9,500.8,43.9,497.4,47z"/>
		</g>
	</g>
</g>
</svg>
