<?xml version="1.0" encoding="utf-8"?>
<!-- Generator: Adobe Illustrator 19.0.0, SVG Export Plug-In . SVG Version: 6.00 Build 0)  -->
<svg version="1.1" id="Layer_1" xmlns="http://www.w3.org/2000/svg" xmlns:xlink="http://www.w3.org/1999/xlink" x="0px" y="0px"
	 viewBox="128 -186.3 512 512" style="enable-background:new 128 -186.3 512 512;" xml:space="preserve">
<style type="text/css">
	.st0{fill:#FFFFFF;}
</style>
<g id="outline">
	<rect x="176" y="205.7" class="st0" width="16" height="16"/>
	<rect x="272" y="205.7" class="st0" width="16" height="16"/>
	<rect x="336" y="205.7" class="st0" width="16" height="16"/>
	<rect x="432" y="205.7" class="st0" width="16" height="16"/>
	<path class="st0" d="M616,173.7h-56v-56c0-4.4-3.6-8-8-8h-72v-48h72c4.4,0,8-3.6,8-8v-64c0-4.4-3.6-8-8-8H392c-4.4,0-8,3.6-8,8v56
		H152c-4.4,0-8,3.6-8,8v192c0,4.4,3.6,8,8,8h464c4.4,0,8-3.6,8-8v-64C624,177.3,620.4,173.7,616,173.7z M400-2.3h144v48H400V-2.3z
		 M320,61.7h144v48H320V61.7z M160,61.7h144v48H160V61.7z M160,125.7h64v48h-64V125.7z M304,237.7H160v-48h144V237.7z M240,173.7
		v-48h144v48H240z M464,237.7H320v-48h144V237.7z M400,173.7v-48h144v48H400z M608,237.7H480v-48h128V237.7z"/>
	<rect x="496" y="205.7" class="st0" width="16" height="16"/>
	<rect x="576" y="205.7" class="st0" width="16" height="16"/>
	<rect x="256" y="141.7" class="st0" width="16" height="16"/>
	<rect x="352" y="141.7" class="st0" width="16" height="16"/>
	<rect x="416" y="141.7" class="st0" width="16" height="16"/>
	<rect x="512" y="141.7" class="st0" width="16" height="16"/>
	<rect x="192" y="141.7" class="st0" width="16" height="16"/>
	<rect x="176" y="77.7" class="st0" width="16" height="16"/>
	<rect x="272" y="77.7" class="st0" width="16" height="16"/>
	<rect x="336" y="77.7" class="st0" width="16" height="16"/>
	<rect x="432" y="77.7" class="st0" width="16" height="16"/>
	<rect x="416" y="13.7" class="st0" width="16" height="16"/>
	<rect x="512" y="13.7" class="st0" width="16" height="16"/>
	<path class="st0" d="M184-34.3h160c4.4,0,8-3.6,8-8v-64c0-4.4-3.6-8-8-8H184c-4.4,0-8,3.6-8,8v64C176-37.9,179.6-34.3,184-34.3z
		 M192-98.3h144v48H192V-98.3z"/>
	<rect x="208" y="-82.3" class="st0" width="16" height="16"/>
	<rect x="304" y="-82.3" class="st0" width="16" height="16"/>
	<rect x="208" y="-18.3" class="st0" width="16" height="32"/>
	<rect x="240" y="-18.3" class="st0" width="16" height="32"/>
	<rect x="272" y="-18.3" class="st0" width="16" height="32"/>
	<rect x="304" y="-18.3" class="st0" width="16" height="32"/>
</g>
</svg>
