<?xml version="1.0" encoding="utf-8"?>
<!-- Generator: Adobe Illustrator 19.0.0, SVG Export Plug-In . SVG Version: 6.00 Build 0)  -->
<svg version="1.1" id="Capa_1" xmlns="http://www.w3.org/2000/svg" xmlns:xlink="http://www.w3.org/1999/xlink" x="0px" y="0px"
	 viewBox="128 -186.3 512 512" style="enable-background:new 128 -186.3 512 512;" xml:space="preserve">
<style type="text/css">
	.st0{fill:#FFFFFF;}
</style>
<g>
	<g>
		<path class="st0" d="M581,175.1c-2.8-1.2-6-0.5-8.2,1.6l-82.1,82.1c-2.1,2.1-2.8,5.4-1.6,8.2c1.2,2.8,3.9,4.6,6.9,4.6h82.1
			c4.2,0,7.5-3.4,7.5-7.5V182C585.7,179,583.8,176.2,581,175.1z M514.2,256.6l56.5-56.5v56.5H514.2z"/>
	</g>
</g>
<g>
	<g>
		<path class="st0" d="M635.4,54.6c-2.8-1.2-6-0.5-8.2,1.6l-22.5,22.5v-153c0-4.2-3.4-7.5-7.5-7.5h-57.7l21-21c0,0,0,0,0,0
			l20.2-20.2c4.3-4.3,6.7-10.1,6.7-16.2s-2.4-11.9-6.7-16.2l-23.4-23.4c-4.3-4.3-10.1-6.7-16.2-6.7s-11.9,2.4-16.2,6.7l-20.2,20.2
			l-24.4,24.4l-52.3,52.3H194.6v-74.3c0-4.2-3.4-7.5-7.5-7.5c-32.6,0-59.1,26.5-59.1,59.1v319.2c0,0.6,0.1,1.1,0.2,1.6
			c1,13.8,7,26.7,17,36.4c10.7,10.4,24.8,16.2,39.7,16.2h229.6l-43.2,43.2c-2.1,2.1-2.8,5.4-1.6,8.2c1.2,2.8,3.9,4.6,6.9,4.6h255.9
			c4.2,0,7.5-3.4,7.5-7.5V61.5C640,58.5,638.2,55.8,635.4,54.6z M535.4-168.1c3.1-3.1,8.1-3.1,11.1,0l23.4,23.4
			c3.1,3.1,3.1,8.1,0,11.1l-14.9,14.9l-34.5-34.5L535.4-168.1z M509.9-142.6l34.5,34.5l-13.8,13.8l-34.5-34.5L509.9-142.6z M625,146
			h-13.9c-4.2,0-7.5,3.4-7.5,7.5s3.4,7.5,7.5,7.5H625v22.6h-13.9c-4.2,0-7.5,3.4-7.5,7.5s3.4,7.5,7.5,7.5H625v22.6h-13.9
			c-4.2,0-7.5,3.4-7.5,7.5s3.4,7.5,7.5,7.5H625V259h-13.9c-4.2,0-7.5,3.4-7.5,7.5c0,4.2,3.4,7.5,7.5,7.5H625v35.8H394.8l75.9-75.9
			c2.9-2.9,2.9-7.7,0-10.6c-0.3-0.3-0.7-0.6-1.1-0.9c-2.9-2-7-1.7-9.6,0.9l-30.5,30.5H184.9c-22.8,0-41.1-17.8-41.9-40.5
			c0-1.4,0.2-2.8,0.3-4.2c0,0,0,0,0,0c0.1-0.7,0.2-1.3,0.3-2c0-0.1,0-0.1,0-0.2c0.1-0.6,0.2-1.2,0.4-1.8c0-0.2,0.1-0.3,0.1-0.5
			c0.1-0.5,0.2-1,0.4-1.5c0.1-0.3,0.1-0.5,0.2-0.8c0.1-0.4,0.2-0.8,0.3-1.1s0.3-0.8,0.4-1.1c0.1-0.3,0.2-0.5,0.3-0.8
			c0.2-0.5,0.4-1,0.6-1.5c0.1-0.1,0.1-0.3,0.2-0.4c0.3-0.6,0.5-1.2,0.8-1.8c0,0,0,0,0-0.1c5.9-12.2,17.2-21.2,30.8-24
			c0,0,0.1,0,0.1,0c0.6-0.1,1.3-0.2,1.9-0.3c0.1,0,0.2,0,0.3-0.1c0.6-0.1,1.1-0.2,1.7-0.2c0.2,0,0.3,0,0.5-0.1
			c0.6-0.1,1.1-0.1,1.7-0.1c0.2,0,0.4,0,0.5,0c0.7,0,1.5-0.1,2.2-0.1c4.2,0,7.5-3.4,7.5-7.5v-54.5c0-4.2-3.4-7.5-7.5-7.5
			c-4.2,0-7.5,3.4-7.5,7.5V156c-12.7,1.6-24.5,7.3-33.8,16.3c-1,1-1.9,1.9-2.8,3v-279.8c0-21.7,15.8-39.9,36.6-43.4v73.7V78.5v0
			c0,4.1,3.4,7.5,7.5,7.5s7.5-3.4,7.5-7.5v0V-66.8h218.2l-41.5,41.5c-2.9,2.9-2.9,7.7,0,10.6c2.9,2.9,7.7,2.9,10.6,0L436.3-69
			c0,0,0,0,0,0l49.2-49.2L520-83.7l-4,4c0,0,0,0,0,0L364.4,71.9l-34.5-34.5l29.9-29.9c2.9-2.9,2.9-7.7,0-10.6
			c-2.9-2.9-7.7-2.9-10.6,0L314,32.1c-0.2,0.2-0.4,0.4-0.5,0.6c-0.1,0.1-0.1,0.1-0.2,0.2c-0.1,0.1-0.2,0.3-0.3,0.4
			c-0.1,0.1-0.1,0.2-0.2,0.3c-0.1,0.1-0.2,0.3-0.2,0.4c0,0.1-0.1,0.2-0.1,0.3c-0.1,0.1-0.1,0.3-0.2,0.4c0,0.1,0,0.1-0.1,0.2
			l-14.6,41.5l-10,28.3c-0.1,0.4-0.2,0.8-0.3,1.1h-25c-4.1,0-7.5,3.4-7.5,7.5s3.4,7.5,7.5,7.5h208.1c4.2,0,7.5-3.4,7.5-7.5
			s-3.4-7.5-7.5-7.5H321.1l45.8-16.2c0,0,0.1,0,0.1,0c0.2-0.1,0.4-0.1,0.5-0.2c0.1,0,0.1-0.1,0.2-0.1c0.2-0.1,0.4-0.2,0.5-0.3
			c0.1,0,0.1-0.1,0.2-0.1c0.2-0.1,0.4-0.2,0.5-0.4c0,0,0.1-0.1,0.1-0.1c0.2-0.2,0.4-0.3,0.6-0.5L524.4-66.8h65.3V93.8L482.1,201.3
			c-2.9,2.9-2.9,7.7,0,10.6c0.2,0.2,0.4,0.4,0.6,0.5c1.4,1.1,3.1,1.7,4.7,1.7s3.4-0.6,4.7-1.7c0.2-0.2,0.4-0.3,0.6-0.5c0,0,0,0,0,0
			L625,79.7V146z M350.7,79.4L329.2,87l-14.3-14.3l7.6-21.5L350.7,79.4z"/>
	</g>
</g>
</svg>
