<?xml version="1.0" encoding="utf-8"?>
<!-- Generator: Adobe Illustrator 19.0.0, SVG Export Plug-In . SVG Version: 6.00 Build 0)  -->
<svg version="1.1" id="Layer_1" xmlns="http://www.w3.org/2000/svg" xmlns:xlink="http://www.w3.org/1999/xlink" x="0px" y="0px"
	 viewBox="153 -142.7 2444 433.7" style="enable-background:new 153 -142.7 2444 433.7;" xml:space="preserve">
<style type="text/css">
	.st0{display:none;}
	.st1{opacity:0.39;enable-background:new    ;}
	.st2{clip-path:url(#SVGID_2_);}
	.st3{fill:#FFFFFF;}
</style>
<rect x="153" y="-142.7" class="st0" width="2444" height="433.7"/>
<g id="XMLID_2_" class="st1">
	<g>
		<defs>
			<rect id="SVGID_1_" x="-92" y="-1047.1" width="592" height="480.9"/>
		</defs>
		<clipPath id="SVGID_2_">
			<use xlink:href="#SVGID_1_"  style="overflow:visible;"/>
		</clipPath>
		<g class="st2">
			
				<image style="overflow:visible;enable-background:new    ;" width="3264" height="2448" id="XMLID_6_" xlink:href="DA57137B.jpeg"  transform="matrix(-1 0 0 -1 2622 611.6069)">
			</image>
		</g>
	</g>
</g>
<path class="st3" d="M605.6-122.7h-390c-22.6,0-41,18.4-41,41v319c0,22.6,18.4,41,41,41h390c22.6,0,41-18.3,41-41v-319
	C646.6-104.3,628.2-122.7,605.6-122.7z M188.6,11.7c0,0,28.7-90.3,134.7-87.5c0,0-62,44.2-61.3,87.5H188.6z M296.7,146.8
	c0,0,34.5-116.5,49-157s-17.5-65.5-17.5-65.5c109-4.5,89,79.5,89,79.5l-50.5,143H296.7z M405.2,146.8c0,0,34.5-116.5,49-157
	s-17.5-65.5-17.5-65.5c109-4.5,89,79.5,89,79.5l-50.5,143H405.2z M630.2,20.3c-29,71-53,149.8-54.3,170.5c-1.2,20.2,18.3,48,18.3,48
	c-98.5,5.5-85-67-85-67S552.2,27,559.7-6.7c7.1-31.9-20-65-20-65C664.2-79.2,630.2,20.3,630.2,20.3z"/>
<g>
	<path class="st3" d="M871.6-49.6c-0.4-9.9-0.7-21.8-0.7-33.8h-0.4c-2.6,10.5-6,22.2-9.1,31.8l-10,32.1h-14.5L828-51.3
		c-2.7-9.6-5.5-21.3-7.4-32.1h-0.2c-0.5,11.1-0.9,23.8-1.5,34l-1.5,31.2h-17.2l5.2-82.2h24.8l8.1,27.4c2.6,9.5,5.1,19.8,7,29.4h0.4
		c2.3-9.5,5.1-20.4,7.8-29.5l8.8-27.3h24.3l4.5,82.2h-18.2L871.6-49.6z"/>
	<path class="st3" d="M924.1-39.2l-5.9,21.1h-19.3l25.1-82.2h24.4l25.5,82.2h-20l-6.3-21.1H924.1z M944.9-53.1l-5.1-17.4
		c-1.5-4.9-2.9-11-4.1-15.9h-0.2c-1.2,4.9-2.4,11.1-3.8,15.9l-4.9,17.4H944.9z"/>
	<path class="st3" d="M984.9-99.2c5.7-1,13.8-1.7,25.1-1.7c11.5,0,19.6,2.2,25.1,6.6c5.2,4.1,8.8,11,8.8,19c0,8.1-2.7,14.9-7.6,19.5
		c-6.3,6-15.7,8.7-26.7,8.7c-2.4,0-4.6-0.1-6.3-0.4v29.4h-18.4V-99.2z M1003.3-61.9c1.6,0.4,3.5,0.5,6.2,0.5c9.9,0,16-5,16-13.4
		c0-7.6-5.2-12.1-14.5-12.1c-3.8,0-6.3,0.4-7.7,0.7V-61.9z"/>
	<path class="st3" d="M1099-100.3V-53c0,14.2,5.4,21.3,14.9,21.3c9.8,0,15.1-6.8,15.1-21.3v-47.3h18.5v46.1
		c0,25.4-12.8,37.5-34.3,37.5c-20.7,0-32.9-11.5-32.9-37.7v-45.9H1099z"/>
	<path class="st3" d="M1163.7-99.2c5.7-1,13.8-1.7,25.1-1.7c11.5,0,19.6,2.2,25.1,6.6c5.2,4.1,8.8,11,8.8,19
		c0,8.1-2.7,14.9-7.6,19.5c-6.3,6-15.7,8.7-26.7,8.7c-2.4,0-4.6-0.1-6.3-0.4v29.4h-18.4V-99.2z M1182.1-61.9
		c1.6,0.4,3.5,0.5,6.2,0.5c9.9,0,16-5,16-13.4c0-7.6-5.2-12.1-14.5-12.1c-3.8,0-6.3,0.4-7.7,0.7V-61.9z"/>
	<path class="st3" d="M1277.8-100.3v82.2h-18.7v-82.2H1277.8z"/>
	<path class="st3" d="M1293.9-18.1v-82.2h21.7l17.1,30.1c4.9,8.7,9.8,18.9,13.4,28.2h0.4c-1.2-10.9-1.6-22-1.6-34.3v-24h17.1v82.2
		h-19.5l-17.6-31.7c-4.9-8.8-10.2-19.4-14.3-29l-0.4,0.1c0.5,10.9,0.7,22.4,0.7,35.9v24.8H1293.9z"/>
	<path class="st3" d="M1397.5-18.1l-26.4-82.2h20.4l10,34.8c2.8,9.8,5.4,19.2,7.3,29.4h0.4c2.1-9.9,4.6-19.6,7.4-29l10.5-35.1h19.8
		l-27.7,82.2H1397.5z"/>
	<path class="st3" d="M1504.6-52.9h-30.3v19.5h33.8v15.2h-52.5v-82.2h50.7v15.2h-32.1V-68h30.3V-52.9z"/>
	<path class="st3" d="M1521.5-37.3c5,2.6,12.7,5.1,20.6,5.1c8.5,0,13.1-3.5,13.1-8.9c0-5.1-3.9-8.1-13.8-11.6
		c-13.7-4.8-22.6-12.3-22.6-24.3c0-14,11.7-24.8,31.1-24.8c9.3,0,16.1,2,21,4.1l-4.1,15c-3.3-1.6-9.1-3.9-17.2-3.9
		c-8.1,0-12,3.7-12,7.9c0,5.2,4.6,7.6,15.2,11.6c14.5,5.4,21.3,12.9,21.3,24.5c0,13.8-10.6,25.5-33.2,25.5c-9.4,0-18.7-2.4-23.3-5
		L1521.5-37.3z"/>
	<path class="st3" d="M1602.6-84.7h-22.1v-15.6h63.2v15.6h-22.4v66.6h-18.7V-84.7z"/>
	<path class="st3" d="M1722.6-49.6c-0.4-9.9-0.7-21.8-0.7-33.8h-0.4c-2.6,10.5-6,22.2-9.1,31.8l-10,32.1h-14.5l-8.8-31.8
		c-2.7-9.6-5.5-21.3-7.4-32.1h-0.2c-0.5,11.1-0.9,23.8-1.5,34l-1.5,31.2h-17.2l5.2-82.2h24.8l8.1,27.4c2.6,9.5,5.1,19.8,7,29.4h0.4
		c2.3-9.5,5.1-20.4,7.8-29.5l8.8-27.3h24.3l4.5,82.2h-18.2L1722.6-49.6z"/>
	<path class="st3" d="M1805.2-52.9H1775v19.5h33.8v15.2h-52.5v-82.2h50.7v15.2H1775V-68h30.3V-52.9z"/>
	<path class="st3" d="M1821.5-18.1v-82.2h21.7l17.1,30.1c4.9,8.7,9.8,18.9,13.4,28.2h0.4c-1.2-10.9-1.6-22-1.6-34.3v-24h17.1v82.2
		H1870l-17.6-31.7c-4.9-8.8-10.2-19.4-14.3-29l-0.4,0.1c0.5,10.9,0.7,22.4,0.7,35.9v24.8H1821.5z"/>
	<path class="st3" d="M1921.5-84.7h-22.1v-15.6h63.2v15.6h-22.4v66.6h-18.7V-84.7z"/>
	<path class="st3" d="M1972-37.3c5,2.6,12.7,5.1,20.6,5.1c8.5,0,13.1-3.5,13.1-8.9c0-5.1-3.9-8.1-13.8-11.6
		c-13.7-4.8-22.6-12.3-22.6-24.3c0-14,11.7-24.8,31.1-24.8c9.3,0,16.1,2,21,4.1l-4.1,15c-3.3-1.6-9.1-3.9-17.2-3.9
		c-8.1,0-12,3.7-12,7.9c0,5.2,4.6,7.6,15.2,11.6c14.5,5.4,21.3,12.9,21.3,24.5c0,13.8-10.6,25.5-33.2,25.5c-9.4,0-18.7-2.4-23.3-5
		L1972-37.3z"/>
	<path class="st3" d="M2088-102.4c-7,11.2-12.3,27.6-12.3,49.4c0,21.5,5.5,37.7,12.3,49h-12.9c-6.6-9.4-13.9-25.6-13.9-49.2
		c0.1-23.7,7.3-39.8,13.9-49.3H2088z"/>
	<path class="st3" d="M2100.2-99.2c5.7-1,13.8-1.7,25.1-1.7c11.5,0,19.6,2.2,25.1,6.6c5.2,4.1,8.8,11,8.8,19
		c0,8.1-2.7,14.9-7.6,19.5c-6.3,6-15.7,8.7-26.7,8.7c-2.4,0-4.6-0.1-6.3-0.4v29.4h-18.4V-99.2z M2118.7-61.9
		c1.6,0.4,3.5,0.5,6.2,0.5c9.9,0,16-5,16-13.4c0-7.6-5.2-12.1-14.5-12.1c-3.8,0-6.3,0.4-7.7,0.7V-61.9z"/>
	<path class="st3" d="M2189.7-18.1l-26.4-82.2h20.4l10,34.8c2.8,9.8,5.4,19.2,7.3,29.4h0.4c2.1-9.9,4.6-19.6,7.4-29l10.5-35.1h19.8
		l-27.7,82.2H2189.7z"/>
	<path class="st3" d="M2266.3-84.7h-22.1v-15.6h63.2v15.6h-22.4v66.6h-18.7V-84.7z"/>
	<path class="st3" d="M2317.3-4c6.7-11.2,12.3-27.7,12.3-49.3s-5.5-37.8-12.3-49.2h12.9c6.5,9.4,13.9,25.4,13.9,49.2
		c-0.1,23.8-7.4,39.8-13.9,49.3H2317.3z"/>
	<path class="st3" d="M2384-100.3h18.7v66.6h32.7v15.6H2384V-100.3z"/>
	<path class="st3" d="M2449.5-84.7h-22.1v-15.6h63.2v15.6h-22.4v66.6h-18.7V-84.7z"/>
	<path class="st3" d="M2500.5-99.2c6.8-1.1,15.7-1.7,25.1-1.7c15.6,0,25.7,2.8,33.7,8.8c8.5,6.3,13.9,16.5,13.9,31
		c0,15.7-5.7,26.6-13.7,33.3c-8.7,7.2-21.8,10.6-37.9,10.6c-9.6,0-16.5-0.6-21.1-1.2V-99.2z M2519.2-32.1c1.6,0.4,4.1,0.4,6.5,0.4
		c16.8,0.1,27.8-9.1,27.8-28.8c0.1-17.1-9.9-26.1-25.9-26.1c-4.1,0-6.8,0.4-8.4,0.7V-32.1z"/>
</g>
<text transform="matrix(1 0 0 1 2925.999 781.8928)" class="st3" style="font-family:'MyriadPro-Bold'; font-size:122px;">MAP UP INVESTMENTS (PVT) LTD</text>
</svg>
