<?xml version="1.0" encoding="utf-8"?>
<!-- Generator: Adobe Illustrator 19.0.0, SVG Export Plug-In . SVG Version: 6.00 Build 0)  -->
<svg version="1.1" id="Layer_1" xmlns="http://www.w3.org/2000/svg" xmlns:xlink="http://www.w3.org/1999/xlink" x="0px" y="0px"
	 viewBox="0 0 5606.2 1235.1" style="enable-background:new 0 0 5606.2 1235.1;" xml:space="preserve">
<style type="text/css">
	.st0{fill:none;}
	.st1{fill:#5E5D5C;}
	.st2{fill:#8F4461;}
	.st3{fill:#437C64;}
	.st4{fill:#84868A;}
	.st5{fill:#534779;}
	.st6{fill:#6C6A6B;}
	.st7{fill:#C6168D;}
	.st8{fill:#659661;}
	.st9{fill:#FFFFFF;}
	.st10{fill:#454564;stroke:#454564;stroke-width:8;}
</style>
<rect id="XMLID_1_" x="2850.9" y="-1325.6" class="st0" width="592" height="480.9"/>
<g id="XMLID_3_">
	<path id="XMLID_13_" class="st1" d="M2547.7-3622c0,0,187.2,146.3,102.4,383.3c-84.8,237-286.7,918.7-286.7,918.7H2773l295.5-836.8
		C3068.5-3156.8,3185.5-3648.4,2547.7-3622z"/>
	<path id="XMLID_8_" class="st2" d="M3182.6-3622c0,0,187.2,146.3,102.4,383.3s-286.7,918.7-286.7,918.7h409.6l295.5-836.8
		C3703.3-3156.8,3820.4-3648.4,3182.6-3622z"/>
	<path id="XMLID_7_" class="st3" d="M4314.8-3060.3c0,0,198.9-582.2-529.6-538.3c0,0,158.6,193.9,117,380.3
		c-43.9,197-295.5,1044.5-295.5,1044.5s-79,424.2,497.4,392c0,0-113.9-162.6-106.8-280.9C4004.7-2183.6,4145.1-2644.8,4314.8-3060.3
		z"/>
	<path id="XMLID_5_" class="st4" d="M1730.4-3111h429.1c-3.9-253.6,358.9-512,358.9-512C1898.2-3639.7,1730.4-3111,1730.4-3111z"/>
</g>
<path id="XMLID_12_" class="st5" d="M1455.5,1235.1H83.7c-22.6,0-41-18.4-41-41V41c0-22.6,18.4-41,41-41h1371.8
	c22.6,0,41,18.4,41,41v1153.1C1496.5,1216.8,1478.1,1235.1,1455.5,1235.1z"/>
<path id="XMLID_9_" class="st6" d="M516,144.8c0,0,98.6,77,53.9,201.7S419,830.1,419,830.1h215.6l155.5-440.5
	C790.1,389.6,851.7,130.9,516,144.8z"/>
<path id="XMLID_10_" class="st7" d="M850.2,144.8c0,0,98.6,77,53.9,201.7S753.1,830.1,753.1,830.1h215.6l155.5-440.5
	C1124.3,389.6,1185.9,130.9,850.2,144.8z"/>
<path id="XMLID_11_" class="st8" d="M1446.2,440.5c0,0,104.7-306.5-278.7-283.4c0,0,83.5,102,61.6,200.2
	c-23.1,103.7-155.5,549.8-155.5,549.8s-41.6,223.3,261.8,206.4c0,0-60-85.6-56.2-147.8C1282.9,902,1356.8,659.1,1446.2,440.5z"/>
<path id="XMLID_14_" class="st9" d="M85.8,413.8h225.9c-2.1-133.5,188.9-269.5,188.9-269.5C174.1,135.5,85.8,413.8,85.8,413.8z"/>
<g id="XMLID_95_">
	<path id="XMLID_52_" class="st10" d="M1854.6,209.3c-0.9-18.9-2.4-44.5-1.8-65.8h-0.9c-3.5,21.2-8.8,45.7-12.7,61l-17.1,71.1h-27.4
		l-16.5-69.9c-3.8-15.9-9.1-40.7-12.1-62.2h-0.9c-0.6,21.5-1.8,46.6-2.9,66.4l-3.2,69h-33.3l14.5-198.8h40.7l15.9,72
		c5.6,25.1,10.6,47.2,14.2,69.6h0.6c2.9-22.1,7.4-44.5,12.7-69.6l15.6-72h40.7l12.1,198.8h-34.5L1854.6,209.3z"/>
	<path id="XMLID_54_" class="st10" d="M1974.6,233.5l-8.8,45.4h-37.5l43.1-198.8h46.3l38.6,198.8h-37.5l-8.6-45.4H1974.6z
		 M2006.8,203.4l-6.5-41.6c-2.1-12.1-4.7-31.8-6.5-45.1h-0.9c-2.1,13.3-5,33.9-7.1,45.4l-7.4,41.3H2006.8z"/>
	<path id="XMLID_57_" class="st10" d="M2100.3,83.1c10.9-2.4,25.7-3.8,40.4-3.8c23,0,41,3.2,54,15.3c11.8,10.3,17.1,26.8,17.1,43.6
		c0,21.5-6.5,36.6-16.8,47.8c-12.4,13-32.4,18.9-48.4,18.9c-2.7,0-5.3,0-7.7,0v74h-38.6V83.1z M2138.9,173.3
		c1.8,0.6,3.8,0.6,6.2,0.6c19.5,0,28.3-13.9,28.3-32.4c0-17.4-7.1-31-25.1-31c-3.5,0-7.1,0.6-9.4,1.5V173.3z"/>
	<path id="XMLID_60_" class="st10" d="M2363.6,80.1v129.2c0,29.2,8.8,38,18.9,38c11.2,0,19.2-8,19.2-38V80.1h38.6v122.4
		c0,51-19.2,78.7-57.5,78.7c-41.6,0-57.8-28.6-57.8-78.4V80.1H2363.6z"/>
	<path id="XMLID_62_" class="st10" d="M2495.7,83.1c10.9-2.4,25.7-3.8,40.4-3.8c23,0,41,3.2,54,15.3c11.8,10.3,17.1,26.8,17.1,43.6
		c0,21.5-6.5,36.6-16.8,47.8c-12.4,13-32.4,18.9-48.4,18.9c-2.7,0-5.3,0-7.7,0v74h-38.6V83.1z M2534.4,173.3
		c1.8,0.6,3.8,0.6,6.2,0.6c19.5,0,28.3-13.9,28.3-32.4c0-17.4-7.1-31-25.1-31c-3.5,0-7.1,0.6-9.4,1.5V173.3z"/>
	<path id="XMLID_65_" class="st10" d="M2760.2,80.1v198.8h-38.6V80.1H2760.2z"/>
	<path id="XMLID_67_" class="st10" d="M2816.9,278.9V80.1h35.4l30.7,77.9c5.9,15.3,15.6,41,21.2,58.1h0.6c-1.2-20.9-3.8-55.4-3.8-92
		V80.1h33.9v198.8h-35.4l-30.4-75.5c-6.5-16.8-15.6-41.9-20.1-59.9h-0.6c0.9,20.1,2.4,50.7,2.4,90.5v44.8H2816.9z"/>
	<path id="XMLID_69_" class="st10" d="M3018.9,278.9l-44.5-198.8h42.8l14.2,85.8c3.5,21.2,7.7,45.7,10.3,69h0.6
		c2.7-23.6,5.9-47.5,9.4-69.9l13.6-84.9h42.5l-45.4,198.8H3018.9z"/>
	<path id="XMLID_71_" class="st10" d="M3230.6,191.6h-45.4v53.7h51.3v33.6h-89.9V80.1h86.4v33.6h-47.8v45.7h45.4V191.6z"/>
	<path id="XMLID_73_" class="st10" d="M3280.4,239.4c8,4.4,21.5,7.7,32.7,7.7c18.3,0,27.1-9.4,27.1-22.4c0-14.5-8.8-21.5-25.7-32.4
		c-27.1-16.5-37.5-37.5-37.5-55.4c0-31.9,21.2-58.4,62.8-58.4c13,0,25.4,3.5,31.3,7.1l-6.2,33.3c-5.6-3.5-14.2-6.8-25.4-6.8
		c-16.5,0-24.5,10-24.5,20.6c0,11.8,5.9,18,27.4,31c26.2,15.9,36,36,36,56.9c0,36.3-26.8,60.2-65.8,60.2c-15.9,0-31.6-4.1-38-8
		L3280.4,239.4z"/>
	<path id="XMLID_75_" class="st10" d="M3444.7,115.8h-35.1V80.1h109.1v35.7h-35.4v163.1h-38.6V115.8z"/>
	<path id="XMLID_77_" class="st10" d="M3682.7,209.3c-0.9-18.9-2.4-44.5-1.8-65.8h-0.9c-3.5,21.2-8.8,45.7-12.7,61l-17.1,71.1h-27.4
		l-16.5-69.9c-3.8-15.9-9.1-40.7-12.1-62.2h-0.9c-0.6,21.5-1.8,46.6-2.9,66.4l-3.2,69h-33.3l14.5-198.8h40.7l15.9,72
		c5.6,25.1,10.6,47.2,14.2,69.6h0.6c2.9-22.1,7.4-44.5,12.7-69.6l15.6-72h40.7l12.1,198.8h-34.5L3682.7,209.3z"/>
	<path id="XMLID_79_" class="st10" d="M3855.2,191.6h-45.4v53.7h51.3v33.6h-89.9V80.1h86.4v33.6h-47.8v45.7h45.4V191.6z"/>
	<path id="XMLID_81_" class="st10" d="M3909.5,278.9V80.1h35.4l30.7,77.9c5.9,15.3,15.6,41,21.2,58.1h0.6c-1.2-20.9-3.8-55.4-3.8-92
		V80.1h33.9v198.8H3992l-30.4-75.5c-6.5-16.8-15.6-41.9-20.1-59.9h-0.6c0.9,20.1,2.4,50.7,2.4,90.5v44.8H3909.5z"/>
	<path id="XMLID_83_" class="st10" d="M4105.3,115.8h-35.1V80.1h109.1v35.7h-35.4v163.1h-38.6V115.8z"/>
	<path id="XMLID_85_" class="st10" d="M4216.2,239.4c8,4.4,21.5,7.7,32.7,7.7c18.3,0,27.1-9.4,27.1-22.4c0-14.5-8.8-21.5-25.7-32.4
		c-27.1-16.5-37.5-37.5-37.5-55.4c0-31.9,21.2-58.4,62.8-58.4c13,0,25.4,3.5,31.3,7.1l-6.2,33.3c-5.6-3.5-14.2-6.8-25.4-6.8
		c-16.5,0-24.5,10-24.5,20.6c0,11.8,5.9,18,27.4,31c26.2,15.9,36,36,36,56.9c0,36.3-26.8,60.2-65.8,60.2c-15.9,0-31.6-4.1-38-8
		L4216.2,239.4z"/>
	<path id="XMLID_87_" class="st10" d="M4481.9,74.8c-17.1,26.8-31.3,65.2-31.3,120.3c0,53.4,14.2,91.4,31.3,119.1h-27.7
		c-16.5-22.1-33.9-62.5-33.9-119.4c1.2-57.5,17.4-97.6,33.9-120H4481.9z"/>
	<path id="XMLID_89_" class="st10" d="M4526.1,83.1c10.9-2.4,25.7-3.8,40.4-3.8c23,0,41,3.2,54,15.3c11.8,10.3,17.1,26.8,17.1,43.6
		c0,21.5-6.5,36.6-16.8,47.8c-12.4,13-32.4,18.9-48.4,18.9c-2.7,0-5.3,0-7.7,0v74h-38.6V83.1z M4564.7,173.3
		c1.8,0.6,3.8,0.6,6.2,0.6c19.5,0,28.3-13.9,28.3-32.4c0-17.4-7.1-31-25.1-31c-3.5,0-7.1,0.6-9.4,1.5V173.3z"/>
	<path id="XMLID_92_" class="st10" d="M4710.7,278.9l-44.5-198.8h42.8l14.2,85.8c3.5,21.2,7.7,45.7,10.3,69h0.6
		c2.7-23.6,5.9-47.5,9.4-69.9l13.6-84.9h42.5l-45.4,198.8H4710.7z"/>
	<path id="XMLID_94_" class="st10" d="M4864.1,115.8H4829V80.1h109.1v35.7h-35.4v163.1h-38.6V115.8z"/>
	<path id="XMLID_97_" class="st10" d="M4978.5,314.3c17.1-27.1,31.3-66.6,31.3-120.3s-14.2-92-31.3-119.1h27.7
		c16.5,21.5,33.9,60.8,33.9,119.1c-1.2,58.4-17.4,97.3-33.9,120.3H4978.5z"/>
	<path id="XMLID_99_" class="st10" d="M5157.8,80.1h38.6v166h51v32.7h-89.7V80.1z"/>
	<path id="XMLID_101_" class="st10" d="M5297.3,115.8h-35.1V80.1h109.1v35.7h-35.4v163.1h-38.6V115.8z"/>
	<path id="XMLID_103_" class="st10" d="M5413.8,83.1c9.7-2.4,23.9-3.8,39.2-3.8c25.1,0,42.5,5.9,55.1,17.7
		c17.1,15.3,26,41.6,26,80.2c0,40.1-10.3,68.7-27.7,84c-13.3,13-33,19.2-60.8,19.2c-12.1,0-24.2-1.2-31.8-2.1V83.1z M5452.4,248.2
		c1.8,0.6,4.7,0.6,6.8,0.6c18.6,0,34.8-18.3,34.8-73.1c0-40.7-10.6-65.5-33.9-65.5c-2.7,0-5.3,0-7.7,0.9V248.2z"/>
</g>
</svg>
