<svg id="Layer_1" data-name="Layer 1" xmlns="http://www.w3.org/2000/svg" viewBox="0 0 135.74 52.57"><defs><style>.cls-1{font-size:26.2px;font-family:aAdistro, a Adistro;}.cls-2{font-size:9.4px;font-family:Gilroy-Medium;font-weight:500;}.cls-3{letter-spacing:0em;}.cls-4{letter-spacing:-0.02em;}.cls-5{letter-spacing:0em;}.cls-6{letter-spacing:0em;}.cls-7{letter-spacing:-0.01em;}.cls-8{letter-spacing:0em;}</style></defs><title>Artboard 1</title><path d="M128.58,11.87a1.4,1.4,0,0,1-.17-.09l-.18.22c-.18-.28.33-.94-.47-.77a.45.45,0,0,0,0-.13,1.9,1.9,0,0,0-.31-.62c-.13-.11-.4-.05-.6-.07a1.48,1.48,0,0,0,0-.21c-.21,0-.44,0-.52-.1a1.42,1.42,0,0,0-1.55-.55c-.09,0-.2,0-.3-.06a5.19,5.19,0,0,1-2.65-.11L122.2,9l-.83,0,.32-.34c-.29.05-.48,0-.48-.31l-.49.33-.4-.19c.38-.37.45-.73.17-.88l.27-.5-.42.09,0,.33-.12,0L120,7.12l-.59,0V7l-.25.22-.1-.18-.55.17-.1-.51-.25.15-.48-.1-.05.58a3,3,0,0,1-.47-.1.75.75,0,0,0-.84.16.59.59,0,0,1-.71,0l-1,.34c0,.37-.36.14-.49.06a3.63,3.63,0,0,0-2.06-.53l.12.62-.09.08.38.28c-.14,0-.17,0-.18,0-.34-.33-.46-.34-.76-.1h0l0,.13c.34.36.58.85,1.14,1l-.68,0,.08.27-.24,0a11.77,11.77,0,0,0,1.52.65c.13.05.32,0,.39.05a.77.77,0,0,0,.84.23c.06,0,.16.08.24.13l.61.39c.16.09.33.16.51.25-.39.4-.38.4-.75.1a.66.66,0,0,0-.15-.05l-.52-.24-.33.24,1.17.47-.51.12,0,.11c.35.08.63.34,1.09.14s.24.3.36.52l-.33,0c.39.26.39.26.55.75a4.5,4.5,0,0,1,.21.58c.12.56.23,1.12.32,1.68,0,.31,0,.64.11.94a.79.79,0,0,1-.14.74c-.35.43-.36.51-.1.93l.82.11c0-.07-.07-.15-.1-.23s-.17-.29,0-.47c.68-.54,1.33-1.12,2-1.68a1.41,1.41,0,0,0,.41-.63,2.43,2.43,0,0,1,.61-.75c.14-.14.38-.18.54-.3a3.63,3.63,0,0,0,.41-.46c0-.05.09-.14.15-.16.44-.12.88-.25,1.33-.35a.82.82,0,0,1,.88.19.64.64,0,0,0,.56.08,2.93,2.93,0,0,0,.63-.51c.24,0,.65-.08.81.37l.75-.4,0-.15c-.19,0-.43-.08-.56,0-.37.24-.71.07-1.08,0,0-.27.17-.38.41-.34s.24,0,.28-.06c.23-.38.52-.19.78-.12l.39-.34.11.3h-.23l0,.08.45.18-.08-.51,1,.21c.07,0,.16.08.21.06a1,1,0,0,0,.41-.27C128.88,12,128.76,11.91,128.58,11.87ZM113.76,10c.62-.23,1.3-.06,1.41.42Zm9.11,2.64-1.18.45A.87.87,0,0,1,122.87,12.66Zm-3.8-.89a4.09,4.09,0,0,1,.58.42c.06,0,.06.14.08.21l-.08.06c-.26-.13-.53-.25-.78-.4-.07,0-.07-.18-.1-.28S119,11.73,119.07,11.77Zm-.89-.32-1.08-.22A1,1,0,0,1,118.18,11.45Zm-.12.53c-.74.3-.74.3-.67-.05Zm-1.15,1.47c-.08-.26-.17-.5-.23-.75,0,0,0-.11.07-.17s.08.05.1.08c.13.24.2.25.43,0A.56.56,0,0,1,116.91,13.45Zm2.53,2c-.43.36-.84.73-1.27,1.1l-.32.3-.12-.07a2.59,2.59,0,0,1-.11-.76,2.46,2.46,0,0,0-.27-1.46,3.05,3.05,0,0,1-.17-.51.7.7,0,0,1,.25-.74,2.62,2.62,0,0,0,.3-.46c.21-.07.51-.19.82-.27.12,0,.38,0,.39,0,.08.27.53.32.37.73a1.18,1.18,0,0,0,.07.66c.05.19.19.36.26.56A.72.72,0,0,1,119.44,15.46Zm.93-1.26-.1.14-.29.33c-.56-1.06-.55-1.37,0-1.59a3.85,3.85,0,0,0,.27.3C120.61,13.68,120.63,13.81,120.37,14.2Zm.52-.8a.24.24,0,0,1-.2,0,1.06,1.06,0,0,1-.55-1.09l.59.12,0-.09-.17-.12c0-.23.31-.14,1,.36C121.36,12.88,121.13,13.15,120.89,13.4Zm-.11.8a1,1,0,0,1,.57-.83C121.46,13.91,121.25,14.21,120.78,14.2Zm.82-.67a1,1,0,0,1,.18-.2l1.21-.54a1.11,1.11,0,0,1,1,0C123.16,13,122.53,13.59,121.6,13.53Zm2-1a1.85,1.85,0,0,1,1.15-.24A1,1,0,0,1,123.56,12.55Zm2-.14h-.48l0-.46.56.36Z"/><text class="cls-1" transform="translate(8.6 32.12)">Greystone park</text><text class="cls-2" transform="translate(45.55 44.85)"><tspan class="cls-3">G</tspan><tspan x="7.46" y="0">u</tspan><tspan class="cls-4" x="12.76" y="0">es</tspan><tspan class="cls-5" x="22.18" y="0">t Ho</tspan><tspan class="cls-6" x="40.09" y="0">u</tspan><tspan class="cls-7" x="45.39" y="0">s</tspan><tspan class="cls-8" x="49.56" y="0">e</tspan></text></svg>