<?xml version="1.0" encoding="utf-8"?>
<!-- Generator: Adobe Illustrator 23.0.0, SVG Export Plug-In . SVG Version: 6.00 Build 0)  -->
<svg version="1.1" id="Layer_1" xmlns="http://www.w3.org/2000/svg" xmlns:xlink="http://www.w3.org/1999/xlink" x="0px" y="0px"
	 viewBox="0 0 135.7 52.6" style="enable-background:new 0 0 135.7 52.6;" xml:space="preserve">
<style type="text/css">
	.st0{enable-background:new    ;}
</style>
<title>Artboard 1</title>
<path d="M128.6,11.9c-0.1,0-0.1-0.1-0.2-0.1l-0.2,0.2c-0.2-0.3,0.3-0.9-0.5-0.8c0,0,0-0.1,0-0.1c-0.1-0.2-0.2-0.4-0.3-0.6
	c-0.1-0.1-0.4-0.1-0.6-0.1c0-0.1,0-0.1,0-0.2c-0.2,0-0.4,0-0.5-0.1c-0.3-0.5-1-0.7-1.6-0.6c-0.1,0-0.2,0-0.3-0.1
	c-0.9,0.2-1.8,0.2-2.7-0.1l0.4-0.4h-0.8l0.3-0.3c-0.3,0.1-0.5,0-0.5-0.3l-0.5,0.3l-0.4-0.2c0.4-0.4,0.4-0.7,0.2-0.9l0.3-0.5
	l-0.4,0.1v0.3h-0.1L120,7.1h-0.6V7l-0.3,0.2L119.1,7l-0.6,0.2l-0.1-0.5l-0.3,0.2l-0.5-0.1l-0.1,0.6c-0.2,0-0.3-0.1-0.5-0.1
	c-0.3-0.1-0.6-0.1-0.8,0.2c-0.2,0.2-0.5,0.2-0.7,0l-1,0.3c0,0.4-0.4,0.1-0.5,0.1c-0.6-0.4-1.3-0.6-2.1-0.5l0.1,0.6L112.1,8l0.4,0.3
	c-0.1,0-0.2,0-0.2,0c-0.3-0.3-0.5-0.3-0.8-0.1l0,0v0.1c0.3,0.4,0.6,0.9,1.1,1H112l0.1,0.3h-0.2c0.5,0.3,1,0.5,1.5,0.6
	c0.1,0.1,0.3,0,0.4,0.1c0.2,0.2,0.5,0.3,0.8,0.2c0.1,0,0.2,0.1,0.2,0.1l0.6,0.4c0.2,0.1,0.3,0.2,0.5,0.3c-0.4,0.4-0.4,0.4-0.8,0.1
	c0,0-0.1,0-0.2-0.1l-0.5-0.2l-0.3,0.2l1.2,0.5l-0.5,0.1V12c0.3,0.1,0.6,0.3,1.1,0.1s0.2,0.3,0.4,0.5H116c0.4,0.3,0.4,0.3,0.6,0.8
	c0.1,0.2,0.2,0.4,0.2,0.6c0.1,0.6,0.2,1.1,0.3,1.7c0,0.3,0,0.6,0.1,0.9c0.1,0.3,0,0.5-0.1,0.7c-0.3,0.4-0.4,0.5-0.1,0.9l0.8,0.1
	c0-0.1-0.1-0.1-0.1-0.2s-0.2-0.3,0-0.5c0.7-0.5,1.3-1.1,2-1.7c0.2-0.2,0.3-0.4,0.4-0.6c0.2-0.3,0.4-0.5,0.6-0.8
	c0.1-0.1,0.4-0.2,0.5-0.3c0.1-0.1,0.3-0.3,0.4-0.5c0-0.1,0.1-0.1,0.2-0.2c0.4-0.1,0.9-0.3,1.3-0.4c0.3-0.1,0.7,0,0.9,0.2
	c0.2,0.1,0.4,0.1,0.6,0.1c0.2-0.1,0.4-0.3,0.6-0.5c0.2,0,0.7-0.1,0.8,0.4l0.8-0.4v-0.1c-0.2,0-0.4-0.1-0.6,0c-0.4,0.2-0.7,0.1-1.1,0
	c0-0.3,0.2-0.4,0.4-0.3s0.2,0,0.3-0.1c0.2-0.4,0.5-0.2,0.8-0.1l0.4-0.3l0.1,0.3h-0.2v0.1l0.4,0.2l-0.1-0.5l1,0.2
	c0.1,0,0.2,0.1,0.2,0.1c0.2-0.1,0.3-0.1,0.4-0.3C128.9,12,128.8,11.9,128.6,11.9z M113.8,10c0.6-0.2,1.3-0.1,1.4,0.4L113.8,10z
	 M122.9,12.6l-1.2,0.4C121.9,12.7,122.4,12.5,122.9,12.6C122.8,12.6,122.9,12.7,122.9,12.6L122.9,12.6z M119.1,11.7
	c0.2,0.1,0.4,0.3,0.6,0.4c0.1,0,0.1,0.1,0.1,0.2l-0.1,0.1c-0.3-0.1-0.5-0.3-0.8-0.4c-0.1,0-0.1-0.2-0.1-0.3S119,11.7,119.1,11.7
	L119.1,11.7z M118.2,11.4l-1.1-0.2C117.5,11.1,117.9,11.2,118.2,11.4L118.2,11.4z M118.1,12c-0.7,0.3-0.7,0.3-0.7-0.1L118.1,12z
	 M116.9,13.4c-0.1-0.3-0.2-0.5-0.2-0.8c0,0,0-0.1,0.1-0.2s0.1,0.1,0.1,0.1c0.1,0.2,0.2,0.3,0.4,0c0.2,0.3,0.1,0.6-0.2,0.8
	C117.1,13.4,117,13.4,116.9,13.4L116.9,13.4z M119.4,15.4c-0.4,0.4-0.8,0.7-1.3,1.1l-0.3,0.3l-0.1-0.1c-0.1-0.2-0.1-0.5-0.1-0.8
	c0.1-0.5,0-1-0.3-1.5c-0.1-0.2-0.1-0.3-0.2-0.5c-0.1-0.3,0-0.6,0.3-0.7c0.1-0.1,0.2-0.3,0.3-0.5c0.2-0.1,0.5-0.2,0.8-0.3
	c0.1,0,0.4,0,0.4,0c0.1,0.3,0.5,0.3,0.4,0.7c0,0.2,0,0.5,0.1,0.7c0.1,0.2,0.2,0.4,0.3,0.6C119.8,14.8,119.7,15.2,119.4,15.4
	L119.4,15.4z M120.4,14.2l-0.1,0.1l-0.3,0.3c-0.6-1.1-0.6-1.4,0-1.6c0.1,0.1,0.2,0.2,0.3,0.3C120.6,13.7,120.6,13.8,120.4,14.2
	L120.4,14.2z M120.9,13.4c-0.1,0-0.1,0-0.2,0c-0.4-0.2-0.6-0.6-0.6-1.1l0.6,0.1v-0.1l-0.2-0.1c0-0.2,0.3-0.1,1,0.4
	C121.4,12.9,121.1,13.1,120.9,13.4L120.9,13.4z M120.8,14.2c0-0.4,0.2-0.7,0.6-0.8C121.5,13.9,121.3,14.2,120.8,14.2L120.8,14.2z
	 M121.6,13.5c0.1-0.1,0.1-0.1,0.2-0.2l1.2-0.5c0.3-0.2,0.7-0.2,1,0C123.2,13,122.5,13.6,121.6,13.5L121.6,13.5z M123.6,12.5
	c0.3-0.2,0.8-0.3,1.2-0.2C124.5,12.6,124,12.7,123.6,12.5L123.6,12.5z M125.6,12.4h-0.5v-0.5l0.6,0.4L125.6,12.4z"/>
<g class="st0">
	<path d="M16.9,17.3L16.9,17.3c-0.7,0-1.3-0.3-1.6-0.3h-0.1c-0.3,0-0.3,0-0.6,0.4c-1.5,1.6-3.4,6.3-3.4,10c0,2.7,0.9,4.8,3.6,4.8
		c0.5,0,1-0.1,1.6-0.3c0.1-1.7,0.3-3.3,0.5-5c-0.7,0.1-3.9,0.7-4.3,0.7h-0.1c-0.1,0-0.2,0-0.2-0.2v0c0.2-0.4,1.6-1.7,2.7-1.7
		c0.6,0,1.7-0.2,2.2-0.3c0.5,0,1.5-0.4,2.1-0.4c0.3,0,0.6,0.1,0.6,0.5c0,0.2-0.1,0.4-0.2,0.7c-0.4,1.8-0.9,2.6-1.1,4.1
		c-0.2,1.6-0.3,2.1-0.3,3.5c0,0.9-0.8,3-1.5,3c-0.4,0-0.5-0.6-0.5-1.5c0-0.6,0-1.3,0.1-1.9c-0.7,0.3-1.7,0.4-1.9,0.4
		c-4.2,0-5.6-2.8-5.6-6.2c0-4.3,2.4-9.6,5.2-11.3c2.1-1.2,2.4-1.3,4.2-1.3h0.3c0.3,0,0.7,0,0.7,0.4C19.2,16.3,17.5,17,16.9,17.3z
		 M10.6,28.6c0,0.1,0,0.2-0.1,0.3c0.1-0.1,0.2-0.1,0.2-0.3c0-0.1,0-0.2,0-0.4v-0.1c-0.1-0.2-0.1-0.3-0.1-0.5s0-0.4,0.1-0.5
		c-0.1,0.1-0.2,0.1-0.4,0.1C10.3,27.7,10.6,28.2,10.6,28.6z M10.4,26.4c0,0.1,0.2,0.3,0.3,0.4c0-0.2,0.1-0.4,0.1-0.6
		c0-0.2,0-0.4-0.1-0.5C10.6,25.8,10.4,26.1,10.4,26.4z M10.9,29.8c0-0.3-0.4-0.4-0.5-0.6v0.1c0,0.2,0.3,1.2,0.3,1.3
		c0,0.3,0.4,0.3,0.6,0.4l-0.4-0.9V29.8z M11.1,23.3c0-0.1,0-0.1-0.1-0.1c-0.1,0-0.2,0.2-0.2,0.4c-0.1,0.6,0.1,1.1-0.3,1.5
		c0.3-0.1,0.4-0.2,0.5-0.2v-0.3c0-0.3,0-0.7,0-1C11,23.6,11.1,23.5,11.1,23.3z M17.5,30.5v0.3c0.1-0.1,0.4-0.4,0.4-0.7
		c0-0.1-0.2-0.3-0.3-0.4C17.6,30,17.5,30.2,17.5,30.5z M17.9,31.9c0-0.2,0-0.3,0-0.5c0-0.3,0.1-0.5,0.2-0.8
		c-0.2,0.1-0.4,0.2-0.5,0.2c0,0.4,0,0.9,0.1,1.3c-0.1,0.1-0.1,0.2-0.1,0.3c0,0.1,0,0.2,0.1,0.2C17.8,32.7,17.9,32.2,17.9,31.9z
		 M18.2,28.2c0-0.3,0.1-0.4,0.1-0.6c-0.1,0.1-0.2,0.1-0.3,0.3c0,0.2,0,0.3-0.1,0.5c0,0.1,0,0.1,0,0.2c0,0.3-0.1,0.6-0.2,0.8
		c0.1-0.1,0.2-0.1,0.4-0.1C18.3,28.9,18.2,28.5,18.2,28.2z M18,26.7c0,0.2,0.3,0.4,0.4,0.6c0.1-0.2,0.2-0.3,0.2-0.5
		c0-0.2-0.3-0.2-0.5-0.4C18.1,26.5,18,26.6,18,26.7z"/>
	<path d="M25.6,32.6c-0.7,0.4-1,0.6-1.1,0.6c-0.2,0-0.3-0.3-0.3-0.6c0-1.1,0.8-5.4,0.8-6.5c0-0.4-0.1-0.5-0.3-0.5
		c-0.2,0-1.4,0.4-1.5,0.4c-0.1,0-0.1,0-0.2,0.1c0,0.1-0.8,1.1-1.2,1.8l-0.8-0.8c0.2-0.4,0.3-0.9,0.3-1.3c0-0.1,0-0.2,0-0.3l-0.2-0.6
		c-0.1-0.4-0.2-0.6-0.2-1.1c0-1,0.2-2.7,0.4-2.9c0.2-0.2,2-0.9,2.3-0.9c0.1,0,0.1,0.5,0.1,1.2c0,1-0.1,2.2-0.1,2.6l0.2,0.3
		c0.2,0.3,0.3,0.5,0.7,0.5c0.5,0,1.7-0.5,2.2-0.5c0.4,0,0.5,0.2,0.5,0.7c0,0.7-0.8,5.3-0.8,5.7c0,0.1,0,0.1,0,0.1
		c0.1,0,1.7-2.4,2.5-3.6l0.8,0.8C28.3,29.7,27.3,31.6,25.6,32.6z M21.4,23.2c0.1,0,0.2,0.1,0.3,0.2c-0.1-0.2-0.1-0.3-0.1-0.5
		c0-0.1,0-0.2,0-0.3c0.1-0.2,0-0.3,0.1-0.5l-0.4,0.8c0,0.1-0.1,0.3-0.1,0.3c0,0,0,0.1,0,0.1C21.3,23.2,21.3,23.2,21.4,23.2z
		 M22.3,24.2c-0.1,0-0.2-0.1-0.3-0.3c0,0.1,0.1,0.3,0.1,0.4v0.1C22.1,24.5,22.3,24.2,22.3,24.2L22.3,24.2L22.3,24.2z M25.7,28.6
		c0,0.1,0,0.2,0,0.3c0.1-0.1,0.4-0.4,0.4-0.7c0-0.1-0.2-0.3-0.3-0.4C25.8,28.1,25.7,28.3,25.7,28.6z M26,30.1v-0.5
		c0-0.3,0.1-0.5,0.2-0.7C26,28.9,25.8,29,25.7,29c0,0.4,0.1,0.9,0.1,1.3c-0.1,0.1-0.1,0.2-0.1,0.3c0,0.1,0,0.2,0.1,0.2
		C26,30.8,26,30.3,26,30.1z M26.3,26.3c0-0.2,0.1-0.4,0.2-0.6c-0.1,0.1-0.2,0.1-0.3,0.3c0,0.2,0,0.3-0.1,0.5c0,0.1,0,0.2,0,0.2
		c0,0.3-0.1,0.6-0.2,0.8c0.1-0.1,0.2-0.1,0.4-0.1C26.4,27,26.3,26.6,26.3,26.3z M26.2,24.8c0,0.2,0.3,0.4,0.4,0.5
		c0.1-0.2,0.2-0.3,0.2-0.5c0-0.2-0.3-0.2-0.5-0.4C26.2,24.6,26.2,24.7,26.2,24.8z M26.7,31.6C26.7,31.5,26.7,31.5,26.7,31.6
		c-0.1,0-0.2,0.1-0.2,0.1c0,0,0,0,0,0C26.6,31.7,26.7,31.6,26.7,31.6z"/>
	<path d="M28,30.6c0-1,0.3-2.4,0.9-3.5c0.9-1.9,3.4-3.2,5.4-3.2h0.3c0.6,0,1,0.6,1,1.1c0,1.4-1.8,3.6-5.3,5.7
		c0.3,1.2,1.3,1.9,2.1,1.9c2.3,0,3.9-2.3,5.1-5.7l0.8,0.8c-1,2.7-3.8,6.3-6.4,6.3C29.6,34,28,33,28,30.6z M29.2,30.7
		c0.1,0,0.2,0.1,0.3,0.2c-0.1-0.2-0.1-0.3-0.1-0.5c0-0.1,0-0.2,0-0.3c0.1-0.2,0-0.3,0.1-0.5l-0.4,0.8c0,0.1-0.1,0.3-0.1,0.4
		c0,0,0,0.1,0,0.1S29.1,30.7,29.2,30.7z M30.1,31.7c-0.1,0-0.2-0.1-0.3-0.2c0,0.1,0.1,0.3,0.1,0.4V32C29.9,32,30.1,31.7,30.1,31.7
		L30.1,31.7z M31.4,26.1C30.7,26.9,30,28,30,29.3c0,0.2,0,0.4,0,0.6c1.5-1.2,3.4-2.7,3.4-3.6c0-0.3-0.4-0.5-1.4-0.5
		C31.7,25.8,31.7,25.8,31.4,26.1z"/>
	<path d="M40.4,38c0-1.8,1.5-4.5,2-5.3c-0.1-1-0.2-2.1-0.2-3.4l-2,3.1c-0.7,0.9-1.5,1-1.8,1c-1,0-0.8-2.9-1-6
		c-0.1-1-0.4-2.4-0.4-2.8c0-0.6,0.4-1.2,1.7-1.2h0.2c1.1,0,0.4,7.7,0.9,7.7c0.3,0,2-3.2,2.4-4c0-0.4-0.1-0.8-0.1-1.1v-1
		c0-0.4,0.1-0.5,1-0.7l1.9-0.9v0.1c-0.5,1.8-0.6,4.4-0.6,7v0.4c0.2,0,2.1-2.8,2.3-3.8l0.8,0.8c-0.4,1.3-2,3.9-3,5.1
		c-0.1,2-0.4,4.4-1.2,6l-0.8,0.5c-0.8,0.5-1.3,0.9-1.5,0.9C40.6,40.1,40.4,38.6,40.4,38z M38.2,24.6v0.2c0,0.3,0.4,0.4,0.5,0.6
		c0.1-0.2,0.1-0.3,0.1-0.4c0-0.3-0.4-0.3-0.6-0.4V24.6L38.2,24.6z M38.8,28.3c0-0.1-0.2-0.3-0.3-0.4c0,0.2-0.1,0.4-0.1,0.6
		c0,0.2,0,0.4,0.1,0.5C38.6,28.8,38.8,28.5,38.8,28.3z M38.6,26c0-0.1,0-0.2,0.1-0.3c-0.1,0.1-0.2,0.1-0.2,0.3c0,0.1,0,0.2,0,0.4
		v0.1c0.1,0.2,0.1,0.3,0.1,0.5s0,0.4-0.1,0.5c0.1-0.1,0.2-0.1,0.4-0.1C38.8,26.9,38.6,26.5,38.6,26z M38.9,29.3c0-0.2,0-0.3,0.1-0.4
		c-0.2,0.1-0.4,0.2-0.5,0.2c0.1,0.4,0.2,0.9,0.3,1.3c0,0.1,0,0.2,0,0.2c0,0.2,0.1,0.3,0.1,0.3c0.1,0,0.1-0.2,0.1-0.4
		C39,30,38.9,29.6,38.9,29.3z M42,36.9c0.1,0,0.3-0.5,0.4-1.8c-0.4,0.5-0.5,1.1-0.5,1.5C42,36.8,42,36.9,42,36.9z M43.7,34.5
		c-0.1,0.2-0.1,0.3-0.1,0.5c0,0.4-0.1,0.7-0.3,1c0.1-0.1,0.3-0.1,0.5-0.1c0-0.1,0-0.2,0-0.3v-0.4c0-0.4,0.1-0.7,0.2-1
		C43.9,34.3,43.8,34.3,43.7,34.5z M44,25.2c0-0.2-0.4-0.2-0.6-0.4v0.1c0,0.1,0,0.1,0,0.2c0,0.3,0.4,0.4,0.5,0.6
		C43.9,25.5,44,25.3,44,25.2z M43.8,28.5c0-0.1-0.2-0.3-0.3-0.4c-0.1,0.2-0.1,0.4-0.1,0.6c0,0.2,0.1,0.3,0.1,0.5
		C43.6,29.1,43.8,28.8,43.8,28.5z M43.8,30.5c0,0.1-0.1,0.2-0.1,0.3c0,0.1,0.1,0.2,0.1,0.2c0.1,0,0.1-0.3,0.1-0.5
		c0-0.3-0.1-0.7-0.1-1c0-0.2,0-0.3,0.1-0.5c-0.2,0.1-0.4,0.2-0.5,0.2C43.6,29.7,43.7,30.2,43.8,30.5z M43.6,26.2c0,0.1,0,0.2,0,0.3
		c0,0.1,0,0.1,0,0.1c0.1,0.2,0.1,0.3,0.1,0.5c0,0.2-0.1,0.4-0.1,0.6c0.1-0.1,0.2-0.1,0.4-0.1c-0.1-0.4-0.3-0.9-0.3-1.3
		c0-0.1,0-0.2,0.1-0.4C43.7,26,43.6,26,43.6,26.2z"/>
	<path d="M49.8,29.5c0.7-0.7,1.3-1.5,1.9-2.6l0.8,0.8c-0.5,0.7-1.9,2.4-2.4,3c0.2,0.4,0.3,1,0.3,1.5c0,0.7-0.2,0.8-0.7,1.1
		c-0.4,0.2-1.4,1.1-1.9,1.1c-0.5,0-0.9-0.6-0.9-1.1c0-0.4,0.2-0.8,0.6-1.4c0.3-0.4,0.4-0.5,0.4-0.7c-0.4-1.6-1.4-4.9-1.4-7.1
		c0-0.5,0.1-1,0.1-1.4c0.1-0.2,0.1-0.3,0.7-0.4c0.6-0.2,1-0.3,1.7-0.6c0.1,0,0.1,0.1,0.1,0.4c0,0.5-0.2,2-0.2,2.6
		C48.8,25.7,49.5,28.5,49.8,29.5z M48.1,24.6v-0.2c0-0.6-0.3-0.4-0.7-0.7C47.6,24.3,47.9,24.2,48.1,24.6z M47.8,33.9
		C47.8,33.9,47.8,33.9,47.8,33.9c-0.1,0-0.2,0.1-0.2,0.1c0,0,0,0,0,0C47.7,34.1,47.8,34,47.8,33.9z M48.7,26.5
		c-0.2-0.5-0.6-0.9-0.6-1.5v-0.1C48,24.9,48,25,48,25.1c0,0.2,0.1,0.3,0.1,0.5c0.2,0.3,0.2,0.6,0.2,1C48.4,26.6,48.5,26.6,48.7,26.5
		z M48.8,27.6c0-0.3-0.2-0.3-0.4-0.6c0,0.4,0.1,0.8,0.2,1.1C48.6,28,48.8,27.8,48.8,27.6z M49,28.3c0-0.1,0-0.2,0.1-0.3
		c-0.2,0.1-0.4,0.2-0.4,0.2c0.2,0.4,0.4,0.9,0.6,1.3v0.1c0,0.2,0.1,0.4,0.2,0.4c0.1,0,0.1-0.1,0.1-0.2C49.4,29.2,49,28.9,49,28.3z"
		/>
	<path d="M63.1,18.6c-0.3,0.2-0.5,0.2-1.3,0.3c-1.9,0.1-5.9,0.6-7.6,0.8c-0.4,1.8-0.9,2.6-1.1,4.2c-0.2,1.8-0.3,2.3-0.3,4.1
		c0,1.8,0.1,5.3,0.3,5.3c0.2,0,2.2-4.3,2.9-6.4l0.8,0.8C56,29.8,55,33,54.7,34.3l-0.3,0.9L54,35.6c-0.8,0.6-1.9,1.2-2.1,1.2
		c-0.3,0-0.5-0.9-0.6-2.5c-0.1-0.6-0.1-2.1-0.1-3.6c0-4.2,0.2-6.9,0.7-10.5l-0.1-0.1c-0.3,0-3.7,0.7-4.2,0.7c0,0-0.1,0-0.1,0
		c0.2-0.3,1.5-1.6,2.4-1.6c0.3,0,0.9,0,1.3-0.1l0.8-0.1c0,0,0.1-1.3,0.3-1.8l0.8-0.5c1-0.7,1.5-1,1.7-1c0.1,0,0.1,0.1,0.1,0.3v0.1
		c0,0.6-0.3,1.9-0.4,2.5l0,0.1c2.5-0.4,8.5-1.2,9.5-1.2c0.1,0,0.2,0,0.2,0C64.3,17.7,63.6,18.3,63.1,18.6z M52.3,25.2
		c0,0.2-0.2,0.3-0.2,0.5c0,0.4,0.2,0.8,0.2,1.2v0.1c0.1-0.1,0.1-0.1,0.2-0.2c0-0.7-0.1-1.3-0.1-2c0-0.3,0-0.5,0-0.8
		c-0.1,0.1-0.1,0.3-0.1,0.7v0.2V25.2L52.3,25.2z M52.2,28.7c0,0.3,0,0.5,0,0.7c0.1-0.2,0.2-0.7,0.2-1.1c0-0.2-0.1-0.5-0.1-0.7
		C52.2,27.9,52.2,28.3,52.2,28.7z M52.6,31.5c0-0.4-0.2-0.9-0.3-1.3c0-0.1,0-0.2,0-0.3c0-0.2,0.1-0.5,0.1-0.7
		c-0.1,0.2-0.2,0.3-0.2,0.4c0,0.7,0.1,1.4,0.1,2.1c0,0.2,0,0.3,0,0.5c0,0.2,0,0.3,0.1,0.3C52.4,32.4,52.6,31.8,52.6,31.5z
		 M52.5,22.7c0-0.4-0.2-0.4-0.2-0.7v0.5c0,0.4,0.2,0.7,0.2,0.9C52.5,23.2,52.5,23,52.5,22.7z M52.6,17.2
		C52.5,17.2,52.5,17.2,52.6,17.2c-0.1,0.2,0,0.2,0,0.2c0.1,0,0.1,0,0.1-0.1S52.6,17.2,52.6,17.2z M54.1,35.3
		C54.1,35.2,54.1,35.2,54.1,35.3c-0.1,0-0.2,0.1-0.2,0.1c0,0,0,0,0,0C54,35.4,54.1,35.3,54.1,35.3z"/>
	<path d="M57.8,23.1c0.7-0.1,1.7-0.9,2.4-0.9h0.1c1.9,0.2,2.2,2.4,2.4,4.6c0,0.5,0,1-0.1,1.4c0.5-0.1,1.1-0.5,1.5-1.4l0.8,0.8
		c-0.5,1.1-1.4,1.7-2.5,1.7c-0.3,1.1-0.7,2.1-1.2,2.7c-0.2,0.3-1.7,1.3-2.8,1.8c-0.3,0.1-0.6,0.2-0.9,0.2c-1.4,0-1.9-2.1-1.9-4.3
		s0.5-4.8,1-5.6c0.2-0.2,0.3-0.5,0.3-0.6C57,23.3,57.1,23.1,57.8,23.1z M56.9,31.1c0.1,0,0.2,0.1,0.3,0.2c-0.1-0.2-0.1-0.3-0.1-0.5
		c0-0.1,0-0.2,0-0.3c0.1-0.2,0-0.3,0.1-0.5l-0.4,0.8c0,0.1-0.1,0.3-0.1,0.4c0,0,0,0.1,0,0.1S56.9,31.1,56.9,31.1z M59.1,32.8
		c1.1,0,1.8-3.3,1.8-3.5c-1.2-0.3-2.7-1.2-3-2c-0.3,0.5-0.4,1.1-0.4,1.8C57.4,30.7,58.2,32.5,59.1,32.8z M57.8,32.1
		c-0.1,0-0.2-0.1-0.3-0.2c0,0.1,0.1,0.3,0.1,0.4v0.1C57.7,32.4,57.9,32.1,57.8,32.1L57.8,32.1z M61,27.8c0-2.8-1-4.3-2.1-4.3
		c-0.2,0-0.5,1.2-0.5,1.5C58.6,25.9,59.7,27.3,61,27.8z M60.3,32.4c0,0-0.5,0.2-0.5,0.3v0C59.9,32.7,60.3,32.5,60.3,32.4
		C60.3,32.4,60.3,32.4,60.3,32.4z M60.8,23.4c0.1,0,0.2,0.1,0.3,0.2c0-0.1-0.1-0.3-0.1-0.4v-0.1C60.9,23.1,60.8,23.3,60.8,23.4
		L60.8,23.4L60.8,23.4z M61.7,24.4c-0.1,0-0.2-0.1-0.3-0.2c0.1,0.2,0.1,0.3,0.1,0.5c0,0.1,0,0.2,0,0.3c-0.1,0.2,0,0.3-0.1,0.5
		l0.4-0.8c0-0.1,0.1-0.3,0.1-0.4c0,0,0-0.1,0-0.1C61.8,24.4,61.7,24.4,61.7,24.4z"/>
	<path d="M73.5,26.9l0.8,0.8l-2.2,4.4l-0.6,0.8c-0.7,0.9-1.4,1-1.8,1h-0.2c-1.1,0-0.4-9.5-0.9-9.5c-0.3,0-2,4.3-2.3,5.3
		c0,0.6,0,1,0,1.4v1c0,0.5-0.2,0.5-1.5,0.8c-0.1,0-0.2,0-0.2,0c-0.6,0-0.8-0.5-0.8-1.2c0-0.9,0.3-1.8,0.3-3.2c0-1.3-0.1-2.5-0.1-3.3
		V24c0-0.5,0.2-0.6,1.5-0.9l1-0.2l-0.1,0.9c-0.1,0.8-0.1,2.1-0.2,3.5l2-4.2c0.7-0.9,1.5-1,1.8-1c1,0,0.9,6.3,1,9.4
		c0,0.1,0.1,0.1,0.1,0.1C71.5,31.5,73.3,27.6,73.5,26.9z M65.5,28.3c0-0.1-0.2-0.3-0.3-0.4c0,0.2-0.1,0.4-0.1,0.6
		c0,0.2,0,0.4,0.1,0.5C65.3,28.8,65.5,28.5,65.5,28.3z M65.6,29.3c0-0.2,0-0.3,0.1-0.4c-0.2,0.1-0.4,0.2-0.5,0.2
		c0.1,0.4,0.2,0.9,0.3,1.3c0,0.1,0,0.2,0,0.2c0,0.2,0.1,0.3,0.1,0.3c0.1,0,0.1-0.2,0.1-0.4C65.7,30,65.6,29.6,65.6,29.3z M69.9,23.6
		v0.2c0,0.3,0.4,0.4,0.5,0.6c0.1-0.2,0.1-0.3,0.1-0.4c0-0.3-0.4-0.3-0.6-0.4V23.6L69.9,23.6z M70.5,27.2c0-0.1-0.2-0.3-0.3-0.4
		c0,0.2-0.1,0.4-0.1,0.5c0,0.2,0,0.4,0.1,0.6C70.2,27.7,70.5,27.5,70.5,27.2z M70.3,24.9c0-0.1,0-0.2,0.1-0.3
		c-0.1,0.1-0.2,0.1-0.2,0.3c0,0.1,0,0.2,0,0.4v0.1c0.1,0.2,0.1,0.3,0.1,0.5s0,0.4-0.1,0.5c0.1-0.1,0.2-0.1,0.4-0.1
		C70.5,25.8,70.3,25.4,70.3,24.9z M70.5,28.2c0-0.2,0-0.3,0.1-0.4c-0.2,0.1-0.4,0.2-0.5,0.2c0.1,0.4,0.2,0.9,0.3,1.3
		c0,0.1,0,0.2,0,0.2c0,0.2,0.1,0.3,0.1,0.3c0.1,0,0.1-0.2,0.1-0.4C70.7,28.9,70.5,28.6,70.5,28.2z"/>
	<path d="M72.6,30.6c0-1,0.3-2.4,0.9-3.5c0.9-1.9,3.4-3.2,5.4-3.2H79c0.6,0,1,0.6,1,1.1c0,1.4-1.8,3.6-5.3,5.7
		c0.3,1.2,1.3,1.9,2.1,1.9c2.3,0,3.9-2.3,5.1-5.7l0.8,0.8c-1,2.7-3.8,6.3-6.4,6.3C74.1,34,72.6,33,72.6,30.6z M73.7,30.7
		c0.1,0,0.2,0.1,0.3,0.2C74,30.7,74,30.5,74,30.4c0-0.1,0-0.2,0-0.3c0.1-0.2,0-0.3,0.1-0.5l-0.4,0.8c0,0.1-0.1,0.3-0.1,0.4
		c0,0,0,0.1,0,0.1S73.7,30.7,73.7,30.7z M74.6,31.7c-0.1,0-0.2-0.1-0.3-0.2c0,0.1,0.1,0.3,0.1,0.4V32C74.5,32,74.6,31.7,74.6,31.7
		L74.6,31.7z M76,26.1c-0.7,0.8-1.4,1.9-1.4,3.1c0,0.2,0,0.4,0,0.6c1.5-1.2,3.4-2.7,3.4-3.6c0-0.3-0.4-0.5-1.4-0.5
		C76.3,25.8,76.2,25.8,76,26.1z"/>
	<path d="M89.4,25.4c0,1.1,0,2.3,0,2.8v1l0.5-0.9c0.7-1.3,1-1.7,1.6-2.3c0.4-0.4,0.8-0.7,1.7-1.3c1.5-0.9,2-1.2,2.4-1.2
		c0.8,0,1.1,0.7,1.1,1.6c0,1-0.3,2.4-0.9,3.5c-0.6,1.3-1.2,1.8-2.5,2.7c-1.6,1-3,1.3-3.4,1.3c-0.1,0-0.1,0-0.1,0s0,0,0.1,0h-0.3
		l-0.3,0.7c-0.4,1.2-1,4-1.2,5.4c0,0.3-0.3,0.6-1.5,1.2c-0.7,0.3-1.3,0.6-1.3,0.6v-0.1c0-0.4,0.6-2.8,1-4.3s0.8-3.8,0.8-7.5
		c0-1.8-0.3-2.8-0.5-4.2c1-0.5,1.5-0.9,1.8-0.9C88.8,23.3,89.4,23.9,89.4,25.4z M88.4,34.5c-0.1,0.2-0.1,0.3-0.1,0.5
		c0,0.4-0.1,0.7-0.3,1c0.1-0.1,0.3-0.1,0.5-0.1c0-0.1,0-0.2,0-0.3v-0.4c0-0.4,0.1-0.7,0.2-1C88.6,34.3,88.5,34.3,88.4,34.5z
		 M88.6,25.2c0-0.2-0.4-0.2-0.6-0.4v0.1c0,0.1,0,0.1,0,0.2c0,0.3,0.4,0.4,0.5,0.6C88.6,25.5,88.6,25.3,88.6,25.2z M88.5,28.5
		c0-0.1-0.2-0.3-0.3-0.4c-0.1,0.2-0.1,0.4-0.1,0.6c0,0.2,0.1,0.3,0.1,0.5C88.3,29.1,88.5,28.8,88.5,28.5z M88.5,30.5
		c0,0.1-0.1,0.2-0.1,0.3c0,0.1,0.1,0.2,0.1,0.2c0.1,0,0.1-0.3,0.1-0.5c0-0.3-0.1-0.7-0.1-1c0-0.2,0-0.3,0.1-0.5
		c-0.2,0.1-0.4,0.2-0.5,0.2C88.3,29.7,88.4,30.2,88.5,30.5z M88.2,26.2c0,0.1,0,0.2,0,0.3c0,0.1,0,0.1,0,0.1
		c0.1,0.2,0.1,0.3,0.1,0.5c0,0.2-0.1,0.4-0.1,0.6c0.1-0.1,0.2-0.1,0.4-0.1c-0.1-0.4-0.3-0.9-0.3-1.3c0-0.1,0-0.2,0.1-0.4
		C88.4,26,88.2,26,88.2,26.2z M93,30.5c1-1.1,1.5-2.9,1.5-4.2c0-0.8-0.2-1.5-0.8-1.5c-0.2,0-0.3,0.1-0.6,0.4
		c-1.5,1.7-2.9,4.4-3.4,5.5l-0.2,0.5l1.2-0.6c0.6,0,1.1,0.3,1.5,0.3C92.6,30.9,92.7,30.9,93,30.5z M95.1,24.1L95.1,24.1
		c0.1,0,0.2,0.1,0.3,0.2c0-0.1-0.1-0.3-0.1-0.4c0-0.1,0-0.1,0-0.1h0C95.2,23.8,95.1,24.1,95.1,24.1L95.1,24.1z M96,25.2
		c-0.1,0-0.2-0.1-0.3-0.2c0.1,0.2,0.1,0.3,0.1,0.5c0,0.1,0,0.2-0.1,0.3c-0.1,0.2,0,0.3,0,0.5l0.4-0.8c0-0.1,0.1-0.3,0.1-0.3
		c0,0,0-0.1,0-0.1C96.1,25.2,96.1,25.2,96,25.2z"/>
	<path d="M103.1,31.1c0-1.1,0.1-2.3,0.1-2.9v-1l-0.5,0.9c-0.7,1.3-0.6,1.1-1.1,1.7c-0.3,0.4-0.7,0.7-1.5,1.2c-1.3,0.9-1.7,1-2.1,1
		c-0.7,0-0.9-0.6-0.9-1.4c0-0.9,0.3-2.2,0.8-3.2c0.5-1.2,1.1-1.5,2.2-2.4c0.8-0.8,1.6-1,2.3-1c0.8,0,1.4,0.5,1.4,0.5
		c0-0.3,0.1-0.3,1.1-0.8c0.6-0.3,1.1-0.6,1.1-0.6v0.1c0,0.1-0.2,0.8-0.3,1.3c-0.1,0.6-0.2,1.5-0.2,2.9c0,0.5,0,0.9,0,1.4
		c0,1.5,0.1,2.5,0.1,2.5c0.2,0,2-3.4,2.3-4.3l0.8,0.8c-0.6,1.4-2.4,5.3-3.4,5.9c-0.5,0.4-0.8,0.7-1,0.7
		C103.3,34.3,103.1,32.7,103.1,31.1z M98.6,29.7c0.1,0,0.2,0.1,0.3,0.2c-0.1-0.2-0.1-0.3-0.1-0.5c0-0.1,0-0.2,0-0.3
		c0.1-0.2,0-0.3,0.1-0.5l-0.4,0.8c0,0.1-0.1,0.3-0.1,0.3c0,0,0,0.1,0,0.1C98.5,29.7,98.6,29.7,98.6,29.7z M100.4,25.8
		c-0.8,0.9-1.3,2.3-1.3,3.4c0,0.7,0.1,1.3,0.6,1.3c0.1,0,0.3-0.1,0.5-0.4c1.3-1.4,2.5-3.5,2.9-4.4l0.1-0.5v-0.1l-1,0.6
		c-0.5,0-0.9-0.2-1.2-0.2C100.8,25.5,100.7,25.5,100.4,25.8z M99.6,30.8L99.6,30.8c-0.1,0-0.2-0.1-0.3-0.2c0,0.1,0.1,0.3,0.1,0.4V31
		C99.4,31,99.6,30.8,99.6,30.8L99.6,30.8z M105,26.5c0-0.2-0.4-0.2-0.6-0.4v0.1c0,0.1,0,0.1,0,0.2c0,0.3,0.4,0.4,0.5,0.6
		C105,26.8,105,26.6,105,26.5z M104.9,29.8c0-0.1-0.2-0.3-0.3-0.4c-0.1,0.2-0.1,0.4-0.1,0.6c0,0.2,0.1,0.3,0.1,0.5
		C104.6,30.4,104.9,30.1,104.9,29.8z M104.9,31.9c0,0.1-0.1,0.2-0.1,0.3c0,0.1,0.1,0.2,0.1,0.2c0.1,0,0.1-0.3,0.1-0.5
		c0-0.3-0.1-0.7-0.1-1c0-0.2,0-0.3,0.1-0.5c-0.2,0.1-0.4,0.2-0.5,0.2C104.6,31,104.8,31.5,104.9,31.9z M104.6,27.5
		c0,0.1,0,0.2,0,0.3c0,0.1,0,0.1,0,0.1c0.1,0.2,0.1,0.3,0.1,0.5c0,0.2-0.1,0.4-0.1,0.6c0.1-0.1,0.2-0.1,0.4-0.1
		c-0.1-0.4-0.3-0.9-0.3-1.3c0-0.1,0-0.2,0.1-0.4C104.7,27.3,104.6,27.3,104.6,27.5z"/>
	<path d="M112.3,32.6c-0.7,0.4-1,0.6-1.1,0.6c-0.2,0-0.3-0.3-0.3-0.6c0-1.1,0.8-5.4,0.8-6.5c0-0.4-0.1-0.5-0.3-0.5
		c-0.2,0-1.4,0.4-1.5,0.4c-0.1,0-0.1,0-0.2,0.1c0,0.1-0.8,1.1-1.2,1.8l-0.8-0.8c0.2-0.4,0.3-0.9,0.3-1.3c0-0.1,0-0.2,0-0.3l-0.2-0.6
		c-0.1-0.4-0.2-0.6-0.2-1.1c0-1,0.2-2.7,0.4-2.9c0.2-0.2,2-0.9,2.3-0.9c0.1,0,0.1,0.5,0.1,1.2c0,1-0.1,2.2-0.1,2.6l0.2,0.3
		c0.2,0.3,0.3,0.5,0.7,0.5c0.5,0,1.7-0.5,2.2-0.5c0.4,0,0.5,0.2,0.5,0.7c0,0.7-0.8,5.3-0.8,5.7c0,0.1,0,0.1,0,0.1
		c0.1,0,1.7-2.4,2.5-3.6l0.8,0.8C115,29.7,113.9,31.6,112.3,32.6z M108,23.2c0.1,0,0.2,0.1,0.3,0.2c-0.1-0.2-0.1-0.3-0.1-0.5
		c0-0.1,0-0.2,0-0.3c0.1-0.2,0-0.3,0.1-0.5l-0.4,0.8c0,0.1-0.1,0.3-0.1,0.3c0,0,0,0.1,0,0.1S108,23.2,108,23.2z M108.9,24.2
		c-0.1,0-0.2-0.1-0.3-0.3c0,0.1,0.1,0.3,0.1,0.4v0.1C108.8,24.5,109,24.2,108.9,24.2L108.9,24.2L108.9,24.2z M112.4,28.6
		c0,0.1,0,0.2,0,0.3c0.1-0.1,0.4-0.4,0.4-0.7c0-0.1-0.2-0.3-0.3-0.4C112.5,28.1,112.4,28.3,112.4,28.6z M112.7,30.1v-0.5
		c0-0.3,0.1-0.5,0.2-0.7c-0.2,0.1-0.4,0.2-0.5,0.2c0,0.4,0.1,0.9,0.1,1.3c-0.1,0.1-0.1,0.2-0.1,0.3c0,0.1,0,0.2,0.1,0.2
		C112.6,30.8,112.7,30.3,112.7,30.1z M113,26.3c0-0.2,0.1-0.4,0.2-0.6c-0.1,0.1-0.2,0.1-0.3,0.3c0,0.2,0,0.3-0.1,0.5
		c0,0.1,0,0.2,0,0.2c0,0.3-0.1,0.6-0.2,0.8c0.1-0.1,0.2-0.1,0.4-0.1C113.1,27,113,26.6,113,26.3z M112.9,24.8c0,0.2,0.3,0.4,0.4,0.5
		c0.1-0.2,0.2-0.3,0.2-0.5c0-0.2-0.3-0.2-0.5-0.4C112.9,24.6,112.9,24.7,112.9,24.8z M113.4,31.6C113.4,31.5,113.4,31.5,113.4,31.6
		c-0.1,0-0.2,0.1-0.2,0.1c0,0,0,0,0,0C113.3,31.7,113.4,31.6,113.4,31.6z"/>
	<path d="M122.2,31.8c0.9,0,2.2-2.9,2.9-4.9l0.8,0.8l-2.2,4.4l-0.6,0.8c-0.7,0.9-1.4,1-1.8,1h-0.2c-0.6,0-2.2-3.1-2.6-5.7
		c-0.3,0.7-0.5,1.2-0.6,1.5c0,0.6,0,1,0,1.4v1c0,0.5-0.2,0.5-1.5,0.8c-0.1,0-0.2,0-0.2,0c-0.6,0-0.8-0.5-0.8-1.2
		c0-0.9,0.3-1.8,0.3-3.2c0-1.3,0-2.6,0-3.8c0-2.8,0.2-5.3,1.2-7.5l0.8-0.5c1-0.7,1.5-1,1.7-1c0.1,0,0.1,0.1,0.1,0.3v0.1
		c0,2.9-0.9,5.5-1.4,8c-0.1,0.5-0.1,1.1-0.1,1.8v1.2l2-4.2c0.7-0.9,1.5-1,1.8-1c0.5,0,1.5,1.2,1.5,2.6c0,1-1.3,2.2-2.9,3.2
		C120.3,29,121.6,31.8,122.2,31.8z M117.2,18c0,0,0,0.1-0.1,0.3c-0.1,0.7-0.4,1.4-0.4,2.1v0.2c0.1,0.2,0.2,0.4,0.2,0.7
		c0,0.3-0.1,0.6-0.2,0.9c0,0.1,0,0.2,0,0.4c0,0.7-0.3,1.4-0.3,2.1v0c0.1,0.7,0.1,1.2,0.1,1.5c0.1-0.3,0.2-0.8,0.4-1.3
		c-0.1-0.2-0.2-0.3-0.2-0.5c0-0.4,0.2-0.8,0.3-1.2c0-0.4-0.2-0.9-0.2-1.3c0-0.2,0.1-0.5,0.2-0.7c0.1-0.3,0.2-0.7,0.2-1
		c0-0.3,0-0.6,0-0.9c0-0.3,0.1-0.6,0.1-0.8C117.4,18.5,117.2,18,117.2,18z M117.1,28.3c0-0.1-0.2-0.3-0.3-0.4c0,0.2-0.1,0.4-0.1,0.6
		c0,0.2,0,0.4,0.1,0.5C116.9,28.8,117.1,28.5,117.1,28.3z M117.1,29.3c0-0.2,0-0.3,0.1-0.4c-0.2,0.1-0.4,0.2-0.5,0.2
		c0.1,0.4,0.2,0.9,0.3,1.3c0,0.1,0,0.2,0,0.2c0,0.2,0.1,0.3,0.1,0.3c0.1,0,0.1-0.2,0.1-0.4C117.3,30,117.1,29.6,117.1,29.3z
		 M120.7,25.5c0-0.6-0.3-1.1-0.4-1.1c-0.2,0-0.7,1.2-1.2,2.4C120.1,26.4,120.7,26.1,120.7,25.5z M120.3,29.2c0-0.3-0.2-0.3-0.4-0.6
		c0,0.4,0.2,0.8,0.3,1.1C120.2,29.6,120.3,29.4,120.3,29.2z M120.6,29.8c0-0.1,0-0.2,0-0.2c-0.2,0.1-0.3,0.2-0.4,0.2
		c0.2,0.4,0.4,0.8,0.6,1.2v0.1c0,0.2,0.1,0.4,0.2,0.4c0.1,0,0.1-0.1,0.1-0.2C121,30.8,120.6,30.4,120.6,29.8z M121.9,23
		c0-0.2-0.4-0.2-0.5-0.4v0.1c0,0.1,0,0.1,0,0.2c0,0.3,0.4,0.4,0.5,0.6C121.9,23.3,121.9,23.2,121.9,23z"/>
</g>
<g class="st0">
	<path d="M52.6,41.1v0.7c0,1-0.3,1.7-0.9,2.3c-0.6,0.6-1.4,0.9-2.4,0.9c-1,0-1.9-0.3-2.5-1c-0.7-0.7-1-1.5-1-2.4s0.3-1.8,1-2.4
		c0.7-0.7,1.5-1,2.4-1c0.6,0,1.2,0.1,1.7,0.4c0.5,0.3,0.9,0.6,1.2,1.1l-1.4,0.8c-0.1-0.2-0.3-0.4-0.6-0.5c-0.3-0.1-0.5-0.2-0.9-0.2
		c-0.5,0-0.9,0.2-1.3,0.5c-0.3,0.3-0.5,0.8-0.5,1.3c0,0.5,0.2,0.9,0.5,1.3c0.3,0.4,0.8,0.5,1.4,0.5c0.8,0,1.3-0.3,1.5-0.9h-1.6v-1.4
		H52.6z"/>
</g>
<g class="st0">
	<path d="M56.4,40.2H58v4.7h-1.6v-0.5c-0.3,0.4-0.7,0.6-1.3,0.6c-0.5,0-0.9-0.2-1.2-0.5c-0.3-0.3-0.5-0.8-0.5-1.5v-2.8H55v2.6
		c0,0.2,0.1,0.4,0.2,0.6s0.3,0.2,0.5,0.2c0.2,0,0.4-0.1,0.6-0.2c0.1-0.1,0.2-0.4,0.2-0.6V40.2z"/>
</g>
<g class="st0">
	<path d="M60.2,43.1c0.2,0.4,0.5,0.6,1.1,0.6c0.3,0,0.6-0.1,0.9-0.3l1.1,0.8c-0.5,0.6-1.1,0.9-2,0.9c-0.8,0-1.4-0.2-1.9-0.7
		s-0.7-1.1-0.7-1.8c0-0.7,0.2-1.3,0.7-1.8c0.5-0.5,1.1-0.7,1.8-0.7c0.7,0,1.3,0.2,1.7,0.7c0.5,0.5,0.7,1.1,0.7,1.8
		c0,0.2,0,0.4-0.1,0.6H60.2z M60.1,42h1.8c-0.1-0.4-0.4-0.7-0.9-0.7C60.6,41.3,60.3,41.6,60.1,42z"/>
	<path d="M65.3,41.5c0,0.1,0.1,0.1,0.2,0.2c0.2,0.1,0.4,0.1,0.6,0.2c0.2,0.1,0.4,0.1,0.7,0.2c0.2,0.1,0.4,0.2,0.6,0.5
		c0.2,0.2,0.2,0.5,0.2,0.8c0,0.5-0.2,0.9-0.6,1.2S66.1,45,65.5,45c-1.1,0-1.8-0.4-2.1-1.1l1.4-0.7c0.1,0.3,0.4,0.5,0.7,0.5
		c0.3,0,0.4-0.1,0.4-0.3c0-0.1-0.1-0.2-0.2-0.2c-0.2-0.1-0.3-0.1-0.6-0.2s-0.4-0.2-0.7-0.2s-0.4-0.2-0.6-0.4s-0.2-0.5-0.2-0.8
		c0-0.5,0.2-0.9,0.6-1.2c0.4-0.3,0.8-0.4,1.3-0.4c0.9,0,1.6,0.4,1.9,1.1l-1.3,0.6c-0.1-0.3-0.3-0.4-0.6-0.4
		C65.4,41.3,65.3,41.4,65.3,41.5z"/>
</g>
<g class="st0">
	<path d="M71.1,41.6h-1V43c0,0.2,0.1,0.3,0.2,0.4s0.4,0.1,0.8,0v1.4c-0.9,0.1-1.6,0-2-0.3c-0.4-0.3-0.6-0.8-0.6-1.5v-1.4h-0.7v-1.5
		h0.7v-0.8l1.6-0.5v1.3h1V41.6z"/>
	<path d="M77.6,38.3h1.7v6.6h-1.7v-2.5h-1.9v2.5h-1.7v-6.6h1.7v2.4h1.9V38.3z"/>
	<path d="M82.6,45c-0.7,0-1.3-0.2-1.8-0.7c-0.5-0.5-0.7-1.1-0.7-1.8c0-0.7,0.2-1.3,0.7-1.8c0.5-0.5,1.1-0.7,1.8-0.7
		c0.7,0,1.3,0.2,1.8,0.7c0.5,0.5,0.7,1.1,0.7,1.8c0,0.7-0.2,1.3-0.7,1.8C83.8,44.7,83.3,45,82.6,45z M82.6,43.5
		c0.3,0,0.5-0.1,0.7-0.3c0.2-0.2,0.3-0.4,0.3-0.7s-0.1-0.5-0.3-0.7s-0.4-0.3-0.7-0.3c-0.3,0-0.5,0.1-0.7,0.3s-0.3,0.4-0.3,0.7
		s0.1,0.5,0.3,0.7C82.1,43.4,82.3,43.5,82.6,43.5z"/>
</g>
<g class="st0">
	<path d="M89.1,40.2h1.6v4.7h-1.6v-0.5c-0.3,0.4-0.7,0.6-1.3,0.6c-0.5,0-0.9-0.2-1.2-0.5C86.2,44.1,86,43.6,86,43v-2.8h1.6v2.6
		c0,0.2,0.1,0.4,0.2,0.6c0.1,0.1,0.3,0.2,0.5,0.2c0.2,0,0.4-0.1,0.6-0.2c0.1-0.1,0.2-0.4,0.2-0.6V40.2z"/>
</g>
<g class="st0">
	<path d="M92.9,41.5c0,0.1,0.1,0.1,0.2,0.2c0.2,0.1,0.4,0.1,0.6,0.2c0.2,0.1,0.4,0.1,0.7,0.2c0.2,0.1,0.4,0.2,0.6,0.5
		c0.2,0.2,0.2,0.5,0.2,0.8c0,0.5-0.2,0.9-0.6,1.2S93.7,45,93.2,45c-1.1,0-1.8-0.4-2.1-1.1l1.4-0.7c0.1,0.3,0.4,0.5,0.7,0.5
		c0.3,0,0.4-0.1,0.4-0.3c0-0.1-0.1-0.2-0.2-0.2c-0.2-0.1-0.3-0.1-0.6-0.2c-0.2-0.1-0.4-0.2-0.7-0.2c-0.2-0.1-0.4-0.2-0.6-0.4
		c-0.2-0.2-0.2-0.5-0.2-0.8c0-0.5,0.2-0.9,0.6-1.2s0.8-0.4,1.3-0.4c0.9,0,1.6,0.4,1.9,1.1l-1.3,0.6c-0.1-0.3-0.3-0.4-0.6-0.4
		C93,41.3,92.9,41.4,92.9,41.5z"/>
</g>
<g class="st0">
	<path d="M97,43.1c0.2,0.4,0.5,0.6,1.1,0.6c0.3,0,0.6-0.1,0.9-0.3l1.1,0.8c-0.5,0.6-1.1,0.9-2,0.9c-0.8,0-1.4-0.2-1.9-0.7
		s-0.7-1.1-0.7-1.8c0-0.7,0.2-1.3,0.7-1.8c0.5-0.5,1.1-0.7,1.8-0.7c0.7,0,1.3,0.2,1.7,0.7c0.5,0.5,0.7,1.1,0.7,1.8
		c0,0.2,0,0.4-0.1,0.6H97z M96.9,42h1.8c-0.1-0.4-0.4-0.7-0.9-0.7C97.4,41.3,97.1,41.6,96.9,42z"/>
</g>
</svg>
